<?xml version="1.0" standalone="no"?>
<!DOCTYPE svg PUBLIC "-//W3C//DTD SVG 20010904//EN"
 "http://www.w3.org/TR/2001/REC-SVG-20010904/DTD/svg10.dtd">
<svg version="1.0" xmlns="http://www.w3.org/2000/svg"
 width="400.000000pt" height="400.000000pt" viewBox="0 0 400.000000 400.000000"
 preserveAspectRatio="xMidYMid meet">
<metadata>
Created by potrace 1.14, written by Peter Selinger 2001-2017
</metadata>
<g transform="translate(0.000000,400.000000) scale(0.100000,-0.100000)"
fill="#000000" stroke="none">
<path d="M0 3406 l0 -594 53 20 c28 11 71 26 94 33 42 14 42 14 47 -13 5 -25
13 -565 18 -1232 2 -232 0 -294 -10 -292 -6 1 -12 -4 -12 -10 0 -10 -3 -9 -9
1 -5 7 -30 16 -55 18 -35 4 -46 9 -42 20 3 8 -2 16 -12 19 -9 3 -29 12 -44 20
l-28 15 0 -95 c0 -70 3 -96 13 -96 14 0 164 48 189 61 14 7 17 0 20 -44 3 -29
3 -55 1 -58 -1 -4 -53 -10 -114 -14 -69 -5 -106 -11 -98 -16 10 -6 11 -9 2 -9
-8 0 -13 -15 -13 -41 0 -35 2 -39 14 -30 11 9 16 9 21 1 4 -7 24 -10 46 -8 26
2 39 -1 39 -9 0 -6 7 -16 16 -21 32 -18 3 -32 -67 -32 l-69 0 0 -500 0 -500
104 0 c108 0 134 9 100 35 -18 13 -18 14 -1 15 21 0 23 20 2 20 -8 0 -15 5
-15 11 0 5 4 7 10 4 5 -3 10 1 10 9 0 9 -4 16 -9 16 -4 0 -4 24 1 53 6 28 8
77 5 107 -4 36 -3 50 3 40 6 -9 10 -10 10 -3 0 6 -4 14 -9 17 -11 7 -2 48 13
58 8 5 7 8 -1 8 -7 0 -13 7 -13 15 0 8 4 15 9 15 5 0 12 7 15 16 3 8 2 12 -4
9 -6 -3 -10 4 -11 17 0 13 -3 17 -6 11 -12 -32 -21 -8 -17 50 3 47 1 56 -6 37
-18 -48 2 102 22 169 25 81 64 165 86 184 9 8 38 22 65 32 40 15 68 17 185 12
175 -7 305 -41 404 -105 33 -21 41 -35 62 -102 43 -136 74 -352 48 -336 -4 2
-9 -28 -10 -67 -2 -74 -39 -220 -53 -212 -4 3 -13 -11 -19 -31 -13 -39 -3 -38
-113 -18 -27 5 -34 2 -34 -10 0 -9 9 -17 21 -17 25 -2 48 -5 61 -9 23 -5 60
-5 65 2 8 10 60 -3 54 -14 -4 -7 6 -8 27 -3 27 5 31 4 19 -5 -12 -9 -9 -10 13
-5 21 4 27 3 21 -6 -4 -8 -3 -9 4 -5 7 4 18 4 25 -1 19 -12 38 -12 31 -1 -4 6
2 6 14 -1 15 -8 239 -10 775 -9 l754 3 -37 95 c-20 52 -62 169 -93 260 -84
242 -81 237 -162 441 -41 104 -75 197 -75 208 0 11 12 32 28 48 15 16 32 37
37 47 9 16 23 18 106 17 105 -2 140 7 182 47 33 31 72 97 44 74 -13 -11 -15
-10 -11 5 11 40 39 21 85 -55 60 -99 156 -226 285 -378 90 -106 106 -121 128
-117 40 8 154 -16 206 -42 57 -29 83 -67 175 -255 73 -150 115 -232 170 -332
l36 -68 60 0 c57 0 59 1 49 20 -9 16 -8 20 5 20 9 0 26 -5 37 -11 17 -9 18
-13 7 -20 -11 -7 -10 -9 4 -9 16 0 17 33 17 545 l0 545 -30 0 c-28 0 -30 -3
-30 -35 0 -19 -4 -35 -9 -35 -4 0 -50 22 -102 49 -128 66 -169 75 -299 65 -58
-5 -113 -8 -121 -6 -8 1 -32 37 -53 80 l-39 77 3 230 c6 584 5 1003 -2 1035
-5 19 -11 46 -14 60 -3 14 -7 33 -10 43 -3 9 4 29 15 43 12 15 21 33 21 40 0
7 8 11 20 9 18 -4 20 2 20 64 0 90 14 125 58 153 21 13 61 42 90 65 28 24 52
40 52 36 0 -5 5 -1 10 7 5 8 13 15 17 16 29 3 159 90 221 148 17 16 32 27 32
23 0 -4 12 4 27 18 15 14 32 25 36 25 17 0 87 62 87 76 0 16 -36 19 -45 4 -3
-5 -17 -10 -30 -10 -13 0 -27 -4 -30 -10 -3 -5 -17 -10 -31 -10 -18 0 -24 -5
-22 -17 2 -10 -4 -19 -12 -19 -8 -1 -23 -2 -32 -3 -21 -1 -24 -26 -5 -35 6 -3
2 -3 -10 0 -17 4 -23 1 -23 -11 0 -9 -6 -15 -12 -13 -18 3 -57 -19 -104 -61
-22 -20 -66 -54 -98 -76 -32 -22 -64 -46 -72 -53 -16 -15 -60 -7 -87 16 -14
12 -16 26 -12 65 3 31 0 56 -7 64 -9 11 -9 16 1 22 7 4 14 29 16 55 5 65 13
86 31 79 9 -3 14 2 14 16 0 12 11 39 25 61 14 22 25 44 25 49 0 5 6 11 14 14
8 3 16 16 18 29 2 13 9 22 16 21 7 -2 12 7 12 21 0 23 5 25 48 28 39 2 47 6
47 23 1 13 6 18 15 16 34 -10 110 -12 110 -3 0 5 18 12 40 16 29 4 39 10 34
19 -5 7 -1 7 9 -2 14 -11 22 -12 40 -2 24 13 60 79 55 100 -2 8 3 16 10 18 7
3 12 -4 12 -17 0 -12 5 -20 11 -18 6 2 10 7 10 11 -1 4 -1 16 -1 27 0 11 -7
20 -15 20 -9 0 -12 6 -9 15 4 8 15 15 25 15 17 0 19 8 19 80 l0 80 -163 0
-163 0 -50 -57 c-28 -32 -77 -89 -109 -128 -130 -154 -233 -240 -264 -221 -5
4 -13 0 -18 -8 -4 -8 -15 -14 -23 -14 -8 1 -33 0 -55 -1 -30 -1 -36 -4 -25
-11 15 -10 -13 -13 -115 -15 -26 0 -39 -4 -38 -12 4 -17 -163 -21 -367 -8 -58
4 -115 8 -127 9 -13 0 -23 6 -24 11 0 6 -13 20 -30 33 -25 20 -30 21 -35 8 -3
-9 -11 -13 -16 -10 -6 4 -14 0 -19 -7 -7 -11 -9 -9 -9 6 0 14 -7 20 -25 21
-16 1 -22 -2 -18 -10 4 -6 -4 -3 -17 6 -14 9 -24 22 -22 28 1 6 -2 9 -8 5 -5
-3 -10 -2 -10 4 0 6 -6 8 -14 5 -8 -3 -17 2 -20 14 -4 10 -12 19 -19 19 -7 0
-31 11 -53 25 -34 22 -49 25 -90 21 -27 -2 -58 -11 -70 -18 -16 -10 -32 -11
-63 -4 -34 7 -45 6 -57 -6 -20 -20 -23 -19 -21 5 1 11 7 20 14 20 7 0 13 5 13
10 0 12 -17 13 -24 1 -3 -4 -24 -8 -46 -8 -35 0 -40 2 -40 23 0 13 -4 24 -10
24 -5 0 -10 -7 -10 -16 0 -11 -5 -14 -17 -9 -10 3 -40 9 -66 12 -32 4 -44 9
-35 14 13 8 8 11 -22 13 -19 1 -26 36 -10 46 9 6 7 13 -8 28 -11 11 -22 26
-25 33 -5 11 -8 10 -17 -3 -6 -10 -18 -18 -27 -18 -12 0 -13 3 -4 13 8 11 5
16 -14 25 -14 6 -25 16 -25 22 0 5 -7 10 -15 10 -8 0 -15 5 -15 10 0 6 8 10
17 10 14 0 15 2 4 13 -11 10 -14 10 -18 0 -3 -7 -12 -13 -20 -13 -9 0 -13 6
-10 14 13 33 -48 36 -734 36 l-679 0 0 -594z m1470 463 c0 -5 -7 -9 -15 -9 -8
0 -15 7 -15 15 0 9 6 12 15 9 8 -4 15 -10 15 -15z m2377 -121 c-3 -8 -6 -5 -6
6 -1 11 2 17 5 13 3 -3 4 -12 1 -19z m-2270 6 c-3 -3 -12 -4 -19 -1 -8 3 -5 6
6 6 11 1 17 -2 13 -5z m2144 -74 c21 0 39 -5 39 -10 0 -17 -122 -8 -128 9 -3
9 2 11 17 6 14 -4 21 -2 22 7 0 10 2 10 6 1 2 -8 22 -13 44 -13z m149 10 c0
-5 -5 -10 -11 -10 -5 0 -7 5 -4 10 3 6 8 10 11 10 2 0 4 -4 4 -10z m-2063 -16
c-3 -3 -12 -4 -19 -1 -8 3 -5 6 6 6 11 1 17 -2 13 -5z m-27 -14 c11 -8 7 -9
-15 -4 -37 8 -45 14 -19 14 10 0 26 -5 34 -10z m-47 -51 c-8 -8 -13 -7 -18 2
-5 8 -4 10 3 5 7 -4 12 -2 12 5 0 7 3 9 7 6 4 -4 2 -12 -4 -18z m750 -104 c-3
-9 -8 -14 -10 -11 -3 3 -2 9 2 15 9 16 15 13 8 -4z m1480 -160 c-9 -7 -25 -10
-35 -7 -27 7 -13 19 21 19 26 0 28 -2 14 -12z m-98 -55 c3 -6 -1 -7 -9 -4 -18
7 -21 14 -7 14 6 0 13 -4 16 -10z m-1863 -101 c29 1 62 3 73 5 26 5 55 -11 55
-29 0 -9 6 -12 17 -8 10 4 14 2 10 -4 -4 -6 10 -19 31 -29 20 -10 40 -22 43
-26 3 -5 17 -9 31 -10 15 -1 24 -7 21 -12 -4 -5 0 -7 9 -4 24 10 24 -79 0
-106 -24 -26 -34 -89 -21 -124 6 -14 28 -44 51 -66 42 -41 73 -99 63 -117 -4
-5 3 -21 14 -35 14 -18 21 -42 21 -73 1 -32 11 -67 34 -115 31 -62 35 -66 42
-45 10 31 11 35 13 58 0 11 8 26 16 35 8 8 15 22 15 30 0 9 5 16 10 16 6 0 10
6 10 14 0 8 10 18 22 22 12 3 28 13 36 20 7 8 27 14 43 14 121 0 12 -338 -138
-431 -44 -28 -73 -18 -73 24 l-1 32 -13 -25 c-12 -21 -12 -26 2 -36 10 -7 13
-18 8 -30 -4 -10 -6 -19 -5 -19 1 0 -3 -10 -10 -23 -7 -12 -17 -20 -23 -16 -6
4 2 -14 17 -40 21 -37 26 -55 22 -85 -5 -38 -4 -39 32 -45 20 -3 52 -16 71
-28 l35 -23 -27 -3 c-15 -2 -48 6 -73 17 l-45 20 0 -22 c0 -12 3 -53 7 -90 6
-67 7 -69 75 -144 71 -79 79 -93 51 -93 -56 0 -184 -76 -209 -125 -7 -14 -9
-23 -4 -20 16 10 11 -21 -5 -35 -8 -7 -15 -23 -15 -36 0 -28 -35 -54 -72 -54
-15 0 -30 -5 -33 -11 -5 -7 -13 -5 -24 5 -15 14 -18 14 -18 2 0 -22 -43 -81
-74 -102 -15 -10 -25 -23 -22 -29 3 -5 0 -5 -7 2 -7 6 -19 9 -26 6 -8 -3 -14
0 -14 7 0 16 -67 80 -84 80 -8 0 -23 3 -33 6 -17 5 -17 5 0 -6 16 -10 17 -14
4 -28 -31 -37 -27 -47 20 -49 26 -1 41 2 38 7 -4 6 -2 10 3 10 15 0 31 -55 22
-70 -5 -7 -6 -19 -3 -26 2 -7 -9 -20 -27 -29 -23 -12 -30 -13 -25 -3 5 7 -2 3
-13 -9 -39 -39 -160 -40 -135 0 3 5 2 7 -4 4 -14 -9 -134 93 -157 133 -10 18
-14 30 -7 26 8 -5 8 -1 -1 18 -6 14 -17 26 -23 26 -8 0 -10 10 -7 25 2 15 0
25 -7 25 -6 0 -11 13 -11 29 0 37 -10 62 -21 55 -5 -3 -9 4 -9 15 0 15 5 19
23 15 28 -7 37 -8 67 -5 18 1 21 4 11 10 -8 5 -10 14 -6 22 11 17 12 70 2 76
-4 2 -5 12 -3 21 4 12 -8 26 -40 46 -88 55 -86 108 6 157 33 17 60 38 60 45 0
17 -3 17 -90 3 l-69 -12 16 -23 c8 -13 20 -21 26 -17 6 3 7 1 3 -5 -18 -29
-96 69 -96 121 0 24 -3 27 -14 18 -11 -9 -15 -8 -20 5 -4 9 -4 19 -1 22 3 3 5
0 5 -6 0 -15 26 -11 65 10 17 9 44 19 60 22 17 3 47 8 68 12 41 7 59 30 36 45
-8 5 -56 7 -108 5 -93 -4 -117 -14 -106 -43 8 -22 -12 -14 -23 10 -10 21 -11
20 -11 -10 -1 -38 -12 -41 -101 -31 -83 10 -178 1 -259 -23 -35 -10 -80 -19
-101 -19 -21 0 -60 -9 -86 -20 -26 -12 -54 -18 -61 -16 -9 4 -24 -11 -40 -39
-21 -33 -40 -50 -80 -68 -35 -16 -63 -38 -83 -66 -19 -26 -35 -39 -43 -35 -7
4 -9 4 -5 -1 4 -4 1 -14 -7 -22 -8 -8 -15 -24 -15 -35 0 -11 -13 -46 -30 -77
-16 -31 -48 -110 -70 -176 -39 -114 -50 -142 -81 -209 -8 -16 -14 -35 -14 -44
0 -8 -5 -17 -11 -19 -8 -3 -13 144 -17 519 -3 288 -8 636 -11 773 -3 138 -6
372 -8 520 -2 261 -1 270 18 270 18 0 19 -9 22 -120 1 -66 6 -123 10 -127 4
-4 6 44 4 106 l-3 113 543 -4 c299 -2 549 -6 555 -8 9 -3 11 -21 7 -62 -3 -32
-6 -67 -5 -77 0 -10 -7 -32 -16 -49 -10 -20 -13 -43 -9 -66 13 -80 16 -97 23
-121 3 -14 5 -29 4 -35 0 -5 5 -1 14 9 19 25 30 15 15 -13 -10 -20 -8 -21 34
-21 43 0 46 -2 55 -32 7 -27 9 -29 10 -10 1 15 9 26 21 29 23 6 25 14 8 32
-11 10 -10 12 2 11 25 -4 44 0 37 6 -3 4 1 13 9 22 32 31 5 122 -58 195 -30
35 -38 38 -84 39 l-51 0 14 51 c7 28 13 58 13 65 0 21 51 132 61 132 4 0 4
-13 0 -28 -10 -32 -8 -59 4 -86 5 -12 3 -21 -6 -27 -10 -6 -2 -9 24 -9 42 0
47 6 15 21 -21 8 -20 9 5 4 33 -7 55 8 69 44 6 17 12 21 16 13 6 -9 17 -9 45
0 20 6 34 15 31 19 -3 5 2 6 10 3 9 -3 16 -1 16 5 0 20 102 62 132 55 15 -3
51 -5 80 -5z m1723 -17 c-3 -3 -11 0 -18 7 -9 10 -8 11 6 5 10 -3 15 -9 12
-12z m-345 -106 c0 -3 -4 -8 -10 -11 -5 -3 -10 -1 -10 4 0 6 5 11 10 11 6 0
10 -2 10 -4z m-25 -56 c3 -5 1 -10 -4 -10 -6 0 -11 5 -11 10 0 6 2 10 4 10 3
0 8 -4 11 -10z m-8 -60 c2 -11 -1 -20 -6 -20 -5 0 -12 -11 -15 -25 -4 -14 -11
-25 -16 -25 -16 0 -11 50 8 75 19 25 24 24 29 -5z m-555 -88 l-6 -27 -6 25
c-8 30 -1 58 10 40 4 -6 5 -23 2 -38z m-1242 -26 c0 -2 -11 -6 -25 -8 -14 -3
-25 -1 -25 3 0 5 11 9 25 9 14 0 25 -2 25 -4z m71 -121 c21 -24 9 -35 -38 -35
-32 0 -43 12 -23 25 6 4 10 12 9 18 -4 34 0 40 18 26 10 -8 25 -23 34 -34z
m999 -812 c0 -5 -4 -15 -10 -23 -11 -18 -25 -7 -17 15 6 15 27 21 27 8z m-37
-390 c-7 -2 -19 -2 -25 0 -7 3 -2 5 12 5 14 0 19 -2 13 -5z m72 -3 c3 -5 1
-10 -4 -10 -6 0 -11 5 -11 10 0 6 2 10 4 10 3 0 8 -4 11 -10z m56 -51 c42 -54
59 -93 58 -134 -1 -28 -3 -33 -7 -15 -4 23 -5 23 -12 5 -6 -17 -8 -15 -12 12
-4 28 -2 31 11 20 8 -6 1 13 -16 43 -17 30 -36 54 -42 53 -6 -2 -8 4 -4 13 4
10 1 15 -8 14 -8 -1 -21 -2 -29 -1 -13 1 -13 2 0 11 24 16 36 12 61 -21z
m-251 -14 c-7 -9 -15 -13 -17 -11 -7 7 7 26 19 26 6 0 6 -6 -2 -15z m84 -46
c-3 -5 -10 -7 -15 -3 -5 3 -7 10 -3 15 3 5 10 7 15 3 5 -3 7 -10 3 -15z m106
-30 c0 -5 -4 -9 -10 -9 -5 0 -10 7 -10 15 0 8 -4 15 -10 15 -11 0 -1 -30 17
-48 20 -21 16 -45 -6 -39 -14 3 -18 1 -14 -9 3 -8 0 -14 -6 -14 -11 0 -15 12
-11 43 2 22 -31 20 -38 -2 -3 -9 0 -11 8 -6 9 5 11 4 6 -3 -4 -7 -2 -12 4 -12
6 0 9 -4 6 -9 -11 -17 27 -21 51 -5 30 19 44 10 17 -11 -29 -22 -104 -9 -89
15 3 5 -4 12 -16 15 l-21 7 22 20 c20 19 20 21 4 32 -22 17 -9 39 18 30 15 -4
18 -3 13 7 -6 9 -3 11 8 6 10 -4 17 -1 17 6 1 13 40 -30 40 -44z m-125 -9 c0
-33 -35 -39 -53 -10 -17 27 -7 42 26 38 21 -2 27 -8 27 -28z m-84 11 c6 10 9
8 9 -8 0 -12 4 -24 10 -28 5 -3 7 -12 3 -21 -3 -9 0 -14 8 -12 8 2 14 -7 15
-20 2 -29 15 -42 77 -76 49 -27 85 -29 125 -7 33 17 39 6 9 -14 -90 -59 -235
9 -267 124 -10 38 -13 87 -3 62 5 -11 7 -11 14 0z m232 -36 c4 -8 2 -17 -3
-20 -6 -4 -10 -4 -10 -1 0 2 -3 11 -6 20 -3 9 -2 16 4 16 5 0 12 -7 15 -15z
m-125 -60 c6 -13 8 -27 3 -29 -7 -5 -31 34 -31 49 0 15 18 1 28 -20z m-40 -20
c-3 -3 -9 2 -12 12 -6 14 -5 15 5 6 7 -7 10 -15 7 -18z m107 -15 c-3 -5 -12
-10 -18 -10 -7 0 -6 4 3 10 19 12 23 12 15 0z m-18 -26 c-3 -3 -12 -4 -19 -1
-8 3 -5 6 6 6 11 1 17 -2 13 -5z m-256 -41 c13 -16 12 -17 -3 -4 -17 13 -22
21 -14 21 2 0 10 -8 17 -17z m-286 -83 c-3 -5 -12 -10 -18 -10 -7 0 -6 4 3 10
19 12 23 12 15 0z m-1865 -39 c0 -17 -4 -33 -10 -36 -6 -4 -10 8 -10 29 0 20
5 36 10 36 6 0 10 -13 10 -29z m17 -33 c-3 -7 -5 -2 -5 12 0 14 2 19 5 13 2
-7 2 -19 0 -25z m3771 -824 c2 -1 -6 -7 -17 -14 -23 -12 -61 1 -61 21 0 8 67
3 78 -7z"/>
<path d="M1857 2849 c-9 -6 -14 -15 -11 -21 4 -7 2 -8 -5 -4 -6 4 -9 12 -6 17
4 5 -1 9 -9 9 -19 0 -32 -40 -16 -50 7 -4 52 -6 101 -5 91 3 162 -10 215 -38
16 -9 37 -19 47 -23 9 -3 17 -13 17 -20 0 -8 8 -14 18 -14 13 0 14 2 4 9 -8 4
-13 11 -13 15 3 19 0 27 -8 21 -5 -3 -12 -1 -16 5 -3 5 -1 10 6 10 6 0 -1 10
-17 22 -16 12 -31 25 -34 28 -28 31 -70 43 -159 46 -54 2 -104 -1 -114 -7z"/>
<path d="M367 2833 c-4 -3 -7 -12 -7 -20 0 -11 4 -11 20 -1 11 7 20 16 20 20
0 10 -24 10 -33 1z"/>
<path d="M367 2764 c3 -9 9 -12 12 -7 3 4 10 11 15 16 5 4 0 7 -12 7 -15 0
-20 -4 -15 -16z"/>
<path d="M1928 2753 c-15 -7 -30 -22 -33 -33 -4 -11 -11 -20 -16 -20 -5 0 -9
-7 -9 -16 0 -8 3 -13 8 -11 4 3 7 -11 8 -29 1 -37 44 -97 44 -62 0 11 5 15 15
12 9 -4 15 0 15 7 0 12 2 12 9 0 5 -8 11 -9 15 -3 3 6 16 8 29 6 16 -3 15 -1
-5 7 -24 9 -26 13 -17 31 6 11 8 31 5 44 l-7 25 40 -21 c44 -22 71 -57 49 -64
-39 -13 -40 -14 -11 -15 17 -1 39 -4 48 -8 29 -11 7 38 -34 75 -22 20 -28 29
-14 23 12 -6 35 -27 52 -48 23 -28 29 -31 24 -14 -8 30 -94 97 -135 106 -18 4
-37 11 -43 14 -5 4 -22 1 -37 -6z"/>
<path d="M908 2720 c-89 -48 -101 -93 -100 -377 1 -178 5 -230 17 -260 67
-161 286 -172 368 -20 21 40 22 53 22 267 0 124 -4 242 -8 263 -10 46 -57 101
-108 128 -51 25 -141 25 -191 -1z m-59 -417 c-2 -80 -2 -84 -9 -38 -7 45 -3
125 6 125 2 0 3 -39 3 -87z m322 -226 c-8 -8 -11 -7 -11 4 0 20 13 34 18 19 3
-7 -1 -17 -7 -23z"/>
<path d="M368 2713 c6 -2 18 -2 25 0 6 3 1 5 -13 5 -14 0 -19 -2 -12 -5z"/>
<path d="M1421 2444 c0 -11 3 -14 6 -6 3 7 2 16 -1 19 -3 4 -6 -2 -5 -13z"/>
<path d="M2556 2451 c-4 -5 -2 -12 4 -16 6 -4 8 -10 5 -15 -3 -5 -2 -11 3 -14
4 -2 9 6 10 19 2 25 -13 42 -22 26z"/>
<path d="M1540 2420 c0 -11 4 -20 9 -20 5 0 12 -7 15 -16 4 -12 2 -15 -9 -11
-8 4 -21 -1 -30 -9 -13 -14 -13 -18 1 -40 11 -16 12 -24 5 -24 -7 0 -10 -4 -7
-9 3 -5 -7 -14 -23 -21 -16 -6 -32 -21 -35 -33 -5 -17 -8 -19 -15 -8 -6 9 -10
5 -13 -17 l-4 -30 30 23 c46 35 123 58 189 57 49 0 56 2 46 14 -7 8 -22 12
-39 9 -26 -5 -30 -1 -40 32 -7 21 -18 43 -25 48 -6 6 -19 25 -29 43 -19 37
-26 40 -26 12z"/>
<path d="M1637 2413 c-13 -12 -7 -21 21 -28 15 -3 36 -17 47 -30 26 -29 66
-39 91 -21 25 19 13 29 -20 17 -23 -9 -30 -6 -65 29 -38 38 -60 48 -74 33z"/>
<path d="M2349 2400 c-41 -22 -149 -134 -149 -156 0 -8 -4 -14 -9 -14 -5 0
-12 -14 -16 -30 -4 -19 -11 -28 -18 -23 -7 4 -5 -2 3 -12 9 -11 10 -16 3 -11
-8 4 -13 1 -13 -8 0 -19 -11 -21 -28 -4 -6 6 -15 9 -18 5 -4 -3 10 -14 30 -24
53 -25 70 -11 76 63 6 70 47 137 112 185 48 34 80 37 108 9 11 -11 20 -16 20
-10 0 12 -41 50 -54 50 -6 -1 -27 -9 -47 -20z"/>
<path d="M2388 2285 c-24 -32 -23 -49 1 -33 25 15 46 58 28 58 -6 0 -20 -11
-29 -25z"/>
<path d="M2506 2295 c-4 -13 -2 -14 14 -5 23 13 26 20 6 20 -8 0 -16 -7 -20
-15z"/>
<path d="M2361 2214 c0 -11 3 -14 6 -6 3 7 2 16 -1 19 -3 4 -6 -2 -5 -13z"/>
<path d="M1487 2130 c-9 -6 -22 -8 -27 -5 -6 3 -10 1 -10 -4 0 -15 -33 -14
-49 2 -11 10 -13 9 -8 -5 4 -10 2 -18 -3 -18 -5 0 -7 -7 -4 -15 7 -17 89 -22
99 -6 15 26 65 38 146 35 80 -2 82 -2 29 7 -103 17 -155 20 -173 9z"/>
<path d="M1765 2125 c-25 -12 -26 -14 -5 -9 14 4 29 10 35 15 12 12 5 11 -30
-6z"/>
<path d="M1694 1593 c-7 -2 -10 -12 -7 -22 3 -13 11 -17 30 -13 22 4 25 2 19
-14 -4 -10 -4 -15 0 -11 4 4 12 3 18 -3 7 -5 17 -5 26 1 13 8 12 12 -5 24 -11
8 -24 18 -30 23 -15 12 -39 19 -51 15z"/>
<path d="M1790 1521 c-17 -33 -12 -41 21 -34 21 4 34 1 39 -8 5 -7 11 -11 14
-9 5 6 -48 70 -57 70 -4 0 -11 -9 -17 -19z"/>
<path d="M1890 1450 c8 -5 20 -10 25 -10 6 0 3 5 -5 10 -8 5 -19 10 -25 10 -5
0 -3 -5 5 -10z"/>
<path d="M1910 1310 c0 -17 2 -19 14 -8 14 13 12 28 -5 28 -5 0 -9 -9 -9 -20z"/>
<path d="M1930 1284 c0 -9 -5 -12 -12 -8 -7 4 -8 3 -4 -4 12 -19 36 -14 36 8
0 11 -4 20 -10 20 -5 0 -10 -7 -10 -16z"/>
<path d="M1966 1124 c-5 -14 -4 -15 9 -4 17 14 19 20 6 20 -5 0 -12 -7 -15
-16z"/>
<path d="M1970 1070 c-11 -8 -9 -9 13 -8 15 1 27 6 27 10 0 11 -22 10 -40 -2z"/>
<path d="M2610 1329 c0 -5 5 -7 10 -4 6 3 10 8 10 11 0 2 -4 4 -10 4 -5 0 -10
-5 -10 -11z"/>
<path d="M1672 3775 c-7 -8 -9 -15 -4 -15 5 0 15 7 22 15 16 19 -1 19 -18 0z"/>
<path d="M1783 3733 c9 -2 25 -2 35 0 9 3 1 5 -18 5 -19 0 -27 -2 -17 -5z"/>
<path d="M1908 3713 c6 -2 18 -2 25 0 6 3 1 5 -13 5 -14 0 -19 -2 -12 -5z"/>
<path d="M2280 3610 c0 -5 5 -10 10 -10 6 0 10 5 10 10 0 6 -4 10 -10 10 -5 0
-10 -4 -10 -10z"/>
<path d="M3560 3569 c0 -11 4 -18 10 -14 5 3 7 12 3 20 -7 21 -13 19 -13 -6z"/>
<path d="M3820 3194 c-96 -69 -210 -148 -253 -176 -58 -38 -75 -53 -65 -60 9
-7 8 -8 -6 -4 -25 8 -55 -19 -49 -44 3 -12 10 -17 17 -13 7 4 6 1 -1 -9 -7 -8
-10 -18 -6 -21 3 -4 0 -7 -7 -7 -24 0 19 -37 50 -43 23 -5 31 -14 39 -44 24
-85 2 -232 -40 -266 -17 -13 -19 -21 -11 -29 7 -7 12 -19 12 -27 0 -12 -3 -12
-12 -3 -7 7 -16 12 -20 12 -15 0 -8 -15 13 -29 17 -10 23 -10 29 -1 12 19 32
1 25 -21 -8 -23 5 -24 60 -4 22 8 49 14 60 14 17 0 -37 -22 -107 -45 -18 -6
-33 -34 -19 -34 8 0 -3 -77 -16 -110 -3 -8 -7 -32 -8 -53 -3 -42 -15 -64 -15
-27 0 19 -2 21 -16 9 -10 -8 -12 -15 -5 -17 15 -5 14 -32 -1 -32 -10 0 -10 -2
-1 -8 11 -7 11 -60 -1 -80 -3 -6 -2 -14 4 -17 8 -5 8 -11 0 -20 -8 -9 -8 -15
0 -20 6 -3 7 -11 4 -17 -4 -6 -8 -155 -10 -332 -2 -176 -6 -330 -9 -342 -5
-23 13 -31 125 -59 36 -9 115 -32 175 -51 61 -19 132 -42 158 -50 26 -8 57
-12 67 -9 27 9 25 43 -2 56 l-23 10 23 -5 22 -4 0 874 c0 492 -4 874 -9 874
-5 0 -30 -12 -57 -26 -27 -14 -40 -18 -29 -10 11 9 36 24 57 34 l37 17 1 198
c0 108 -1 197 -2 196 -2 0 -82 -57 -178 -125z m-316 -289 c-4 -8 -8 -15 -10
-15 -2 0 -4 7 -4 15 0 8 4 15 10 15 5 0 7 -7 4 -15z m93 -57 c-3 -8 -6 -5 -6
6 -1 11 2 17 5 13 3 -3 4 -12 1 -19z m268 2 c-4 -6 -36 -24 -73 -40 -70 -32
-75 -54 -11 -48 26 2 35 9 40 28 l7 25 1 -27 c1 -16 5 -28 10 -28 6 0 22 -11
36 -24 l26 -24 -98 -50 c-54 -27 -105 -51 -113 -54 -8 -2 -16 -24 -19 -53 -5
-42 -10 -50 -32 -56 -15 -4 -39 -4 -54 -1 -27 5 -27 5 -18 61 4 31 7 100 6
154 l-2 97 49 0 c27 0 52 -4 55 -10 3 -5 18 -8 33 -6 36 5 112 36 112 46 0 5
10 11 23 13 12 2 23 5 25 6 2 0 0 -4 -3 -9z m96 -72 c2 -20 0 -40 -4 -44 -4
-4 -7 14 -7 41 0 56 7 57 11 3z m-436 -700 c3 1 13 2 23 1 11 -1 9 -4 -8 -9
-43 -14 -50 -11 -50 18 1 26 1 26 16 7 8 -11 17 -19 19 -17z m133 15 c-10 -2
-26 -2 -35 0 -10 3 -2 5 17 5 19 0 27 -2 18 -5z m-20 -320 c-26 -2 -71 -2
-100 0 -29 2 -8 3 47 3 55 0 79 -1 53 -3z m45 -50 c4 -19 2 -33 -3 -33 -6 0
-10 17 -10 37 0 43 5 41 13 -4z m-10 -270 c-7 -2 -19 -2 -25 0 -7 3 -2 5 12 5
14 0 19 -2 13 -5z"/>
<path d="M3401 2814 c0 -11 3 -14 6 -6 3 7 2 16 -1 19 -3 4 -6 -2 -5 -13z"/>
<path d="M3367 2522 c-2 -4 -7 -20 -11 -37 -4 -16 -9 -37 -12 -46 -3 -11 3
-19 18 -22 21 -6 21 -7 4 -26 -11 -12 -14 -21 -7 -26 6 -3 11 -15 11 -26 0
-14 -4 -18 -12 -13 -9 5 -9 2 1 -9 10 -13 11 -20 2 -30 -8 -10 -7 -17 2 -26 9
-11 9 -14 -1 -18 -10 -4 -10 -8 -1 -20 10 -11 10 -16 0 -23 -10 -5 -10 -9 -2
-15 9 -5 9 -10 1 -20 -8 -10 -8 -15 0 -20 8 -5 8 -10 0 -20 -8 -10 -7 -15 2
-19 10 -5 10 -7 0 -12 -6 -3 -9 -11 -5 -17 13 -20 10 -49 -4 -54 -12 -5 -12
-7 -1 -14 11 -7 10 -11 -2 -19 -8 -5 -10 -10 -4 -10 14 0 14 -120 -1 -120 -5
0 -3 -5 5 -10 12 -8 13 -11 1 -19 -11 -7 -11 -9 0 -14 12 -5 12 -7 0 -15 -11
-8 -11 -10 0 -15 12 -5 12 -7 0 -15 -11 -8 -11 -10 0 -15 12 -5 12 -7 0 -15
-11 -8 -11 -10 0 -15 12 -4 11 -7 -1 -16 -8 -6 -10 -11 -4 -11 14 0 13 -32 -1
-42 -7 -5 -7 -8 0 -8 7 0 9 -50 7 -142 -2 -79 0 -167 3 -195 6 -50 8 -53 36
-53 l29 0 0 65 c0 36 1 67 2 70 10 32 13 95 4 95 -7 0 -7 3 -1 8 6 4 10 84 10
205 0 110 4 201 8 204 4 3 3 11 -3 18 -8 10 -8 15 1 20 8 6 8 10 -2 15 -10 7
-10 12 -1 22 9 11 9 18 -1 27 -9 11 -9 14 1 18 10 4 10 8 1 19 -9 11 -9 17 0
28 9 10 9 16 1 21 -8 5 -8 10 0 20 8 9 8 15 0 20 -7 4 -7 12 0 25 7 13 7 21 0
25 -8 5 -8 11 0 20 8 10 8 15 0 20 -8 5 -8 10 0 20 7 9 7 15 1 19 -5 4 -8 22
-7 42 3 25 1 32 -8 26 -14 -12 -46 -12 -46 0 0 4 7 8 16 8 9 0 12 5 8 12 -5 7
-2 9 9 5 17 -7 29 14 30 54 1 33 -10 49 -28 42 -11 -4 -15 3 -16 23 -1 16 -1
32 -1 36 2 9 -27 18 -31 10z m58 -102 c3 -5 2 -10 -4 -10 -5 0 -13 5 -16 10
-3 6 -2 10 4 10 5 0 13 -4 16 -10z"/>
<path d="M3475 2320 c3 -5 8 -10 11 -10 2 0 4 5 4 10 0 6 -5 10 -11 10 -5 0
-7 -4 -4 -10z"/>
<path d="M3475 2281 c-3 -5 -1 -12 5 -16 5 -3 10 1 10 9 0 18 -6 21 -15 7z"/>
<path d="M3460 2236 c0 -2 7 -6 15 -10 8 -3 15 -1 15 4 0 6 -7 10 -15 10 -8 0
-15 -2 -15 -4z"/>
<path d="M3476 2201 c-4 -7 -5 -15 -2 -18 9 -9 19 4 14 18 -4 11 -6 11 -12 0z"/>
<path d="M3280 610 c6 -11 13 -20 16 -20 2 0 0 9 -6 20 -6 11 -13 20 -16 20
-2 0 0 -9 6 -20z"/>
<path d="M3320 570 c6 -11 15 -20 20 -20 6 0 2 9 -7 20 -10 11 -19 20 -21 20
-1 0 2 -9 8 -20z"/>
<path d="M3455 430 c3 -5 8 -10 11 -10 2 0 4 5 4 10 0 6 -5 10 -11 10 -5 0 -7
-4 -4 -10z"/>
<path d="M810 120 c0 -5 5 -10 11 -10 5 0 7 5 4 10 -3 6 -8 10 -11 10 -2 0 -4
-4 -4 -10z"/>
<path d="M997 39 c7 -7 15 -10 18 -7 3 3 -2 9 -12 12 -14 6 -15 5 -6 -5z"/>
</g>
</svg>
