<?xml version="1.0" encoding="UTF-8"?>
<svg width="2000px" height="2000px" viewBox="0 0 2000 2000" version="1.1" xmlns="http://www.w3.org/2000/svg" xmlns:xlink="http://www.w3.org/1999/xlink">
    <title>Artboard</title>
    <defs>
        <circle id="path-1" cx="1000" cy="1000" r="1000"></circle>
    </defs>
    <g id="Artboard" stroke="none" stroke-width="1" fill="none" fill-rule="evenodd">
        <g id="Group">
            <mask id="mask-2" fill="white">
                <use xlink:href="#path-1"></use>
            </mask>
            <use id="Mask" fill="#FF595E" xlink:href="#path-1"></use>
            <g id="Me" mask="url(#mask-2)">
                <g transform="translate(326, 171)">
                    <path d="M391.179088,353.022484 C316.577321,386.303202 307.164551,397.641529 294.123368,542.606011 C285.429245,639.249 301.68184,744.538627 342.881152,858.474894 C383.281063,966.79909 426.911092,1041.10143 473.77124,1081.38193 C474.294052,1081.83133 572.262287,1160.93129 680.804749,1142.19208 C790.160587,1123.31244 853.961883,1075.44511 899.049309,1035.75498 C944.136735,996.064855 934.82262,831.104853 952.199452,812.164149 C958.267213,805.550305 997.076177,818.05789 1037.75602,812.164149 C1054.08229,809.798782 1100.00226,799.412677 1121.24301,753.35812 C1129.88201,734.62687 1138.18745,705.566234 1109.86857,660.362287 C1090.98932,630.226322 1060.86961,607.09427 1019.50944,590.966132 C1162.27529,382.226508 1137.50612,282.732231 945.201952,292.483302 C656.745692,307.109909 465.780855,319.741767 391.179088,353.022484 Z" id="Path-2" stroke="#171717" stroke-width="26.8584054" fill="#FFFFFF" fill-rule="evenodd" stroke-linejoin="round"></path>
                    <ellipse id="Oval" stroke="none" fill="#171717" fill-rule="evenodd" transform="translate(830.8209, 586.1132) rotate(15) translate(-830.8209, -586.1132)" cx="830.820927" cy="586.113202" rx="41.9015239" ry="74.0058147"></ellipse>
                    <ellipse id="Oval" stroke="none" fill="#171717" fill-rule="evenodd" transform="translate(460.2634, 573.0145) rotate(10) translate(-460.2634, -573.0145)" cx="460.263405" cy="573.014507" rx="41.9009593" ry="74.0068115"></ellipse>
                    <path d="M1036.33012,535.022635 C1002.49999,507.7396 977.893566,476.29865 962.510859,440.699783 C944.793326,399.697628 913.757778,322.538166 912.465593,320.453637 C896.963915,295.446617 711.037626,333.786288 663.136642,343.989113 C615.235658,354.191937 390.151299,404.209494 335.268489,401.491929 C246.473818,397.095191 66.3061213,200.62568 80.253205,147.491125 C94.2002887,94.3565701 308.472743,136.852019 420.342953,92.2350609 C532.213162,47.618103 535.059286,10.9039069 612.713246,0.865320951 C690.367205,-9.17326495 695.419924,71.2824174 771.69376,79.2442959 C847.967596,87.2061745 878.770228,28.9203579 953.5524,36.958998 C1028.33457,44.997638 1137.31502,130.755932 1170.48382,208.77036 C1203.65261,286.784788 1098.14872,478.452586 1081.28821,503.425508 C1070.04787,520.074122 1055.06184,530.606498 1036.33012,535.022635 Z" id="Path" stroke="#171717" stroke-width="26.8584054" fill="#171717" fill-rule="evenodd" stroke-linecap="round" stroke-linejoin="round"></path>
                    <path d="M157.518017,268.165139 C122.052953,254.870827 29.2949044,136.357108 129.130456,122.928773 C228.966008,109.500438 261.208504,130.71904 379.008512,104.698007 C439.733503,91.2843657 482.816762,69.5937423 528.666482,44.7968486 C571.76033,21.4904124 629.646745,-18.3735679 670.58502,18.652728 C711.523295,55.6790239 746.323622,86.700887 797.213623,83.7784119 C848.103624,80.8559367 898.814095,17.4463201 982.136538,44.7968486 C1065.45898,72.1473771 1156.41992,161.619786 1169.32324,217.829254 C1182.22656,274.038723 1146.47717,361.677871 1146.47717,354.368347" id="Path-4" stroke-opacity="0.149817834" stroke="#FFFFFF" stroke-width="13.4292027" fill="none" stroke-linecap="round" stroke-linejoin="round"></path>
                    <path d="M868.43436,1074.79048 L845.810526,1293.41851 C795.558321,1320.86672 743.978043,1334.59083 691.069692,1334.59083 C638.161341,1334.59083 592.225925,1320.86672 553.263445,1293.41851 L513.705024,1121.88668 C585.783108,1138.51191 639.275968,1145.53628 674.183604,1142.95981 C709.091241,1140.38333 773.841493,1117.66022 868.43436,1074.79048 Z" id="Path-3" stroke="#171717" stroke-width="26.8584054" fill="#FFFFFF" fill-rule="evenodd"></path>
                    <path d="M5.40131476,1704.43586 C-17.3483378,1795.64465 27.3923999,1831.97736 223.743459,1925.97471 C420.094518,2019.97206 575.85929,2043.94502 691.381496,2044 C760.476289,2044.02762 857.472095,2039.18852 962.630726,2015.40142 C1026.79326,2000.88773 1066.77586,1988.95379 1137.43146,1962.8054 C1261.73546,1916.80267 1370.59164,1849.99657 1464,1762.38709 C1391.25025,1554.31396 1246.29966,1406.9212 1029.14822,1320.2088 C888.718885,1264.13289 848.466061,1330.52705 691.381496,1334.76039 C534.296931,1338.99373 559.360984,1254.44355 372.302485,1334.76039 C43.4803169,1475.94594 28.1509673,1613.22706 5.40131476,1704.43586 Z" id="Path-5" stroke="#171717" stroke-width="26.8584054" fill="#171717" fill-rule="evenodd" stroke-linejoin="round"></path>
                    <path d="M626.361452,574 C604.015926,687.204212 608.88573,740.896594 647.128885,753.473911 C657.370138,756.84203 678.646485,756.84203 710.957925,753.473911" id="Path" stroke="#171717" stroke-width="30" fill="none" stroke-linecap="round" stroke-linejoin="round"></path>
                </g>
            </g>
        </g>
    </g>
</svg>