<?xml version="1.0" encoding="UTF-8"?>
<svg width="253px" height="356px" viewBox="0 0 253 356" version="1.1" xmlns="http://www.w3.org/2000/svg" xmlns:xlink="http://www.w3.org/1999/xlink">
    <title>Shape</title>
    <g id="Page-1" stroke="none" stroke-width="1" fill="none" fill-rule="evenodd" fill-opacity="0.5">
        <g id="Home" transform="translate(-1448, -63)" fill="#314AC4" fill-rule="nonzero">
            <path d="M1529.86075,288.729088 C1534.6607,306.743968 1538.07106,325.30646 1539.99397,343.904777 C1540.05269,344.447271 1539.67593,344.938586 1539.15239,344.994882 C1539.11814,345 1539.08389,345 1539.04964,345 C1538.57013,345 1538.15913,344.621278 1538.1102,344.11461 C1536.19707,325.623768 1532.81118,307.168751 1528.03569,289.256228 C1527.8938,288.729088 1528.18737,288.181476 1528.69624,288.033058 C1529.19531,287.894876 1529.71885,288.201948 1529.86075,288.729088 Z M1575.53762,292.153203 C1575.07465,291.863385 1574.45736,291.995583 1574.16415,292.458276 C1562.73916,310.228738 1550.91807,328.604261 1543.06821,348.657682 C1542.86759,349.166136 1543.1248,349.735604 1543.6392,349.933901 C1543.75752,349.979662 1543.88098,350 1543.99929,350 C1544.40053,350 1544.77605,349.761027 1544.93037,349.369517 C1552.70821,329.494055 1564.47271,311.20497 1575.84626,293.51586 C1576.13948,293.053167 1576.00059,292.443022 1575.53762,292.153203 Z M1507.46185,304.109808 C1506.9718,303.858642 1506.37966,304.053424 1506.12953,304.540378 C1499.77419,317.016667 1492.39281,329.093141 1484.18957,340.426368 C1483.86798,340.872316 1483.96497,341.492542 1484.40908,341.810344 C1484.58264,341.93849 1484.78682,342 1484.99101,342 C1485.29729,342 1485.59847,341.856477 1485.79245,341.589933 C1494.05183,330.169567 1501.48937,318.005954 1507.89065,305.4374 C1508.14078,304.960697 1507.9468,304.360974 1507.46185,304.109808 Z M1699.83101,309.807731 C1699.28679,311.461234 1698.55438,313.048597 1697.84232,314.585083 C1696.86577,316.706655 1695.94009,318.71121 1695.46199,320.873484 C1695.19243,322.094532 1695.07544,323.330844 1694.95338,324.643471 C1694.86691,325.574521 1694.77536,326.541184 1694.62277,327.492584 C1693.1071,337.082903 1685.87457,344.59744 1679.74574,350.076895 C1678.60136,351.099524 1677.43662,352.106889 1676.27189,353.119341 C1670.74832,357.911957 1665.03655,362.872467 1661.48641,369.216832 C1661.29314,369.567883 1661.09986,369.924023 1660.91167,370.275074 C1660.15384,371.694543 1659.36548,373.159801 1658.19058,374.38085 C1655.91706,376.736456 1652.79415,377.606453 1649.77297,378.451012 C1648.14031,378.908905 1646.45171,379.376974 1644.96655,380.073989 C1640.89761,381.986965 1637.58144,385.914671 1635.11465,391.745178 C1634.08215,394.192363 1633.24802,396.787091 1632.44441,399.295329 C1631.61028,401.895144 1630.75072,404.581451 1629.6521,407.150741 C1629.22487,408.153018 1628.69082,409.297752 1627.80583,410.218626 C1625.05421,413.072827 1620.89373,412.319847 1617.22152,411.64827 C1616.44842,411.505814 1615.68041,411.368446 1614.94292,411.266692 C1607.45099,410.213538 1600.15235,413.77493 1593.09275,417.214216 L1591.35328,418.058775 C1589.91898,418.750703 1587.06056,419 1583.6986,419 C1575.85574,419 1565.27143,417.646671 1563.63368,417.432988 C1563.63368,417.432988 1563.63368,417.432988 1563.6286,417.432988 C1563.62351,417.432988 1563.61843,417.432988 1563.61334,417.432988 C1526.00115,411.775463 1488.67379,402.693914 1452.66374,390.442726 C1451.86012,390.16799 1450.76151,389.796588 1450.02911,388.890977 C1449.45946,388.188874 1449.25092,387.349403 1449.08308,386.550634 C1446.77396,375.39839 1448.63041,363.605096 1450.26816,353.200745 L1454.037,329.278368 C1454.37778,327.100831 1454.85079,324.11435 1456.90051,322.170848 C1457.99913,321.127869 1459.34696,320.563134 1460.6541,320.013662 C1478.36413,312.570353 1494.99589,303.051262 1510.14249,291.720949 C1509.08457,285.681846 1508.18431,279.612217 1507.59941,273.532413 C1506.65338,263.672445 1506.44993,253.247743 1506.98398,241.688483 C1504.67995,240.752346 1502.81332,238.6613 1501.97919,236.036046 C1501.1298,233.365002 1501.47058,230.510801 1502.88962,228.404492 C1502.99643,228.241686 1503.11341,228.083967 1503.2253,227.926248 C1503.54573,227.483618 1503.8509,227.066427 1503.94754,226.649235 C1504.19676,225.606256 1503.11341,224.497137 1501.98428,224.151173 C1500.9111,223.82556 1499.72094,223.901876 1498.46465,223.983279 C1498.09336,224.008717 1497.72207,224.029068 1497.35587,224.044331 C1494.89925,224.13591 1493.12927,223.591526 1491.96962,222.375565 C1491.26264,221.63276 1490.77946,220.610132 1490.53532,219.333119 C1490.14877,217.313301 1490.46412,215.237518 1491.31351,213.400858 C1485.49493,211.238584 1481.55824,204.924746 1482.29065,198.7381 C1482.72297,195.059691 1484.56925,191.859526 1486.3545,188.761115 C1487.46837,186.827788 1488.62292,184.828321 1489.38585,182.767802 C1489.90972,181.35342 1490.93204,177.802204 1489.09594,175.400809 C1488.28215,174.332391 1487.02587,173.655727 1485.69329,172.933273 C1485.22028,172.6738 1484.74727,172.419415 1484.28951,172.144679 C1479.22369,169.097145 1475.92277,163.30734 1475.88208,157.390342 C1475.85665,153.421934 1477.30112,149.494228 1479.773,146.390729 C1469.85498,139.217069 1468.60887,126.538515 1472.57099,118.026788 C1474.10192,114.735045 1476.56871,111.901195 1479.56447,109.855938 L1479.6255,109.733834 C1480.90213,107.19507 1481.67522,105.663672 1481.02928,103.074031 C1480.72411,101.852982 1480.03239,100.748951 1479.2949,99.5787795 C1478.82188,98.8257996 1478.33361,98.0524688 1477.93689,97.2180856 C1476.56363,94.3282706 1476.47716,91.0670534 1476.53311,88.8691659 C1476.6857,83.6288325 1478.10982,79.7927048 1480.79023,77.4778002 C1483.44521,75.1883342 1486.91906,74.64395 1490.27593,74.114829 L1491.01342,73.9978118 C1494.51779,73.4330768 1497.03544,72.6037813 1498.74439,70.1922104 C1498.74439,70.1871227 1498.74948,70.1871227 1498.75457,70.182035 C1498.80543,70.1158949 1498.85629,70.0497547 1498.92241,69.9988777 C1498.94275,69.9785269 1498.97327,69.9683515 1498.99361,69.9530884 C1499.01905,69.9378253 1499.04448,69.9225622 1499.06991,69.9072991 C1499.15637,69.856422 1499.25301,69.8208081 1499.34965,69.8004573 C1499.3649,69.7953696 1499.37508,69.7902819 1499.38525,69.7902819 C1499.49715,69.7699311 1499.60904,69.7750188 1499.72094,69.8004573 C1499.75145,69.805545 1499.77688,69.8157204 1499.80232,69.8208081 C1499.843,69.8309835 1499.88878,69.8360712 1499.92947,69.856422 C1506.33295,72.6139567 1513.12298,75.4630701 1519.68922,78.2206048 C1526.26054,80.9781395 1533.05566,83.8323406 1539.46931,86.5898753 C1541.41223,87.4293462 1543.42127,88.2942556 1545.50151,88.5384653 C1548.02933,88.833552 1550.66905,88.2026769 1553.21722,87.5921526 L1553.45118,87.5361879 C1568.61304,83.9137438 1584.18688,81.517436 1599.74037,80.4134045 C1605.18257,80.0267392 1611.48941,79.7316524 1617.41479,81.1714722 C1618.50323,81.4360327 1619.58658,81.756558 1620.62925,82.0719955 C1622.4857,82.6265551 1624.23534,83.1505884 1626.06127,83.3897104 C1634.14827,84.4428648 1641.99114,79.5993722 1648.59298,74.7151778 L1649.90521,73.738339 C1656.48671,68.8439693 1663.292,63.7867931 1671.50107,63.0541639 C1673.89157,62.8404804 1676.33801,63.2983736 1678.70816,63.7410037 C1681.33263,64.2294232 1683.8045,64.6924041 1686.14414,64.3057387 C1686.62732,64.2192478 1687.10542,64.5194222 1687.24784,64.9874908 C1687.26818,65.053631 1687.26309,65.1197711 1687.26818,65.1859112 C1687.93447,66.2288902 1688.42274,67.3583602 1688.73808,68.5336194 C1691.35237,69.5409845 1693.6208,71.840626 1694.73467,74.694827 C1695.74682,77.2895553 1695.63492,79.858845 1694.4295,81.9295399 C1694.07855,82.5349764 1693.66658,83.0793606 1693.26985,83.6084817 C1692.8477,84.1783043 1692.4459,84.7125131 1692.13564,85.2823357 C1691.6728,86.1370698 1691.36763,87.3428552 1691.90168,88.167063 C1692.12547,88.5130268 1692.51202,88.8132012 1692.91891,89.1235511 L1693.28003,89.4084624 C1697.54732,92.8579246 1698.78834,99.4770255 1696.16388,104.80385 C1695.17717,106.808405 1693.68183,108.594188 1691.83556,110.059446 C1693.82425,112.033475 1695.48234,113.936276 1696.0825,116.449601 C1696.88612,119.802397 1695.36027,123.699577 1692.29331,126.146762 C1690.7522,127.372898 1688.84998,128.273421 1686.62224,128.843244 C1686.24586,130.430607 1685.28966,131.366744 1684.29277,132.1299 C1682.5177,133.493404 1681.68866,135.146907 1680.73246,137.059883 C1680.37134,137.787425 1679.99496,138.540405 1679.54738,139.308648 C1678.66239,140.834958 1677.29421,141.608289 1675.59543,141.542149 C1674.85794,141.51671 1674.16622,141.353904 1673.49485,141.196185 C1672.45218,140.957063 1671.55702,140.74338 1670.70763,141.048642 C1669.48186,141.481097 1668.45446,142.524076 1667.81869,143.974071 C1666.99473,145.866696 1666.92861,148.176513 1667.65593,149.86563 C1667.78817,150.170892 1667.93058,150.460891 1668.07299,150.75089 C1668.57652,151.763343 1669.14109,152.913164 1669.03937,154.337721 C1668.9173,155.965785 1668.2561,157.624376 1667.0049,159.405072 C1666.46068,160.178403 1665.94698,160.936471 1665.44345,161.684363 C1664.38552,163.251375 1663.38355,164.731897 1662.17304,166.27347 C1662.15778,166.293821 1662.13235,166.298909 1662.11709,166.31926 C1662.18321,167.077327 1662.23408,167.835395 1662.25951,168.593463 C1662.60537,179.888162 1657.62601,190.506197 1653.23665,199.877745 C1645.89732,215.537693 1637.65773,233.075003 1624.38284,246.216538 C1625.49162,253.023884 1625.30343,260.187369 1623.81827,266.969277 C1623.54362,268.185237 1623.34526,269.32997 1623.87931,269.981196 C1624.22517,270.403476 1624.8762,270.622247 1625.56791,270.851193 L1625.67981,270.886807 C1630.47098,272.448732 1634.98241,275.033285 1638.76651,278.380993 C1643.45087,275.475915 1650.58676,273.527325 1656.62912,275.496266 C1659.57401,276.457842 1662.24934,278.080819 1664.6144,279.510463 C1674.26794,285.361321 1685.86948,291.619195 1698.72731,293.633925 C1698.76291,293.639013 1698.79343,293.659363 1698.82903,293.669539 C1698.85955,293.679714 1698.89007,293.669539 1698.92058,293.684802 C1698.9511,293.694977 1698.97145,293.720416 1698.99688,293.735679 C1699.06808,293.771293 1699.12912,293.811994 1699.18506,293.857784 C1699.23084,293.893398 1699.27153,293.929012 1699.30713,293.969713 C1699.35799,294.030766 1699.39868,294.091818 1699.43429,294.163046 C1699.44955,294.19866 1699.48006,294.219011 1699.49532,294.259712 C1701.3772,299.235485 1701.49927,304.755642 1699.83101,309.807731 Z M1699,304.711759 L1694.05523,298 C1693.36337,298.421436 1692.68169,298.858481 1692,299.295525 C1694.11119,302.672216 1695.81032,305.122789 1698.38445,308 C1698.66933,306.917794 1698.87791,305.819979 1699,304.711759 Z M1698,309.15749 C1695.01652,306.079385 1693.1252,303.544174 1690.77038,300 C1689.83804,300.56338 1688.91636,301.147247 1688,301.731114 C1690.39744,305.510883 1693.65264,309.295775 1696.82792,312 C1697.25946,311.06274 1697.66969,310.115237 1698,309.15749 Z M1695.66412,313.742954 C1695.77773,313.485156 1695.88639,313.222097 1696,312.959038 C1692.92277,310.107478 1689.75168,306.05637 1687.42524,302 C1686.61024,302.589252 1685.80018,303.189027 1685,303.794062 C1685.93354,305.272454 1687.32151,307.087561 1689.14908,309.218339 C1690.3938,310.670425 1691.41132,311.933108 1692.39919,313.158963 C1693.13022,314.063886 1693.87607,314.989853 1694.7207,316 C1695.022,315.24239 1695.34306,314.48478 1695.66412,313.742954 Z M1693,324.420225 L1692.95804,324.379775 C1688.41551,319.915169 1683.31697,314.894382 1679.2308,310 C1679.12589,310.712921 1679.09442,311.466292 1679.06819,312.239888 L1679.0577,312.533146 C1679.04196,312.882022 1679.02098,313.225843 1679,313.574719 C1682.59835,318.039326 1687.31398,323.095506 1692.44923,328 C1692.54889,327.560112 1692.64856,327.115169 1692.72199,326.665169 C1692.84264,325.932022 1692.92656,325.173596 1693,324.420225 Z M1692,329.787973 C1687.18687,325.135772 1682.73737,320.319901 1679.23737,316 C1679.17677,316.813391 1679.09596,317.621823 1679,318.430254 C1682.15152,323.67266 1686.36869,328.33478 1691.26263,332 C1691.55051,331.280843 1691.79293,330.541847 1692,329.787973 Z M1691,332.53288 C1686.09237,328.858115 1681.82169,324.219307 1678.53253,319 C1678.38112,320.088435 1678.20361,321.171688 1678,322.25494 C1681.60241,326.779721 1685.55984,331.055718 1689.79398,335 C1690.23253,334.196631 1690.63454,333.37253 1691,332.53288 Z M1689,336.203291 C1684.92609,332.420475 1681.11517,328.320293 1677.61882,324 C1677.43318,324.906033 1677.22174,325.812066 1677,326.707861 C1680.28492,330.741499 1683.93081,334.529433 1687.86549,338 C1688.26257,337.411335 1688.63902,336.812431 1689,336.203291 Z M1688,338.709428 C1684.28487,335.409196 1680.84047,331.81762 1677.70693,328 C1677.48633,328.828825 1677.25068,329.647604 1677,330.466383 C1679.80264,334.203632 1682.90109,337.739954 1686.24521,341 C1686.85187,340.261592 1687.43847,339.498068 1688,338.709428 Z M1685,342.177088 C1681.69908,339.019723 1678.63357,335.605539 1675.8393,332 C1675.57318,332.800671 1675.29683,333.596307 1675,334.386907 C1677.50768,337.45363 1681.6479,342.393621 1683.32651,344 C1683.89458,343.405791 1684.45241,342.801511 1685,342.177088 Z M1680.29821,308.576467 C1680.17265,308.814229 1680.08371,309.072666 1680,309.325935 C1683.96039,314.272423 1689.00897,319.404986 1693.56577,324 C1693.66517,323.01277 1693.79073,322.010033 1694,321.012466 C1689.63677,317.301307 1685.27877,312.391 1681.56951,307 C1681.05157,307.480693 1680.61211,307.98723 1680.29821,308.576467 Z M1694,317.294579 C1693.03746,316.174565 1692.20195,315.156836 1691.39577,314.169792 C1690.42834,312.988408 1689.42671,311.76611 1688.20033,310.364814 C1686.37296,308.273099 1684.98046,306.472895 1684.02769,305 C1683.64169,305.29151 1683.25081,305.567678 1682.86971,305.864303 C1682.56678,306.099557 1682.2785,306.324582 1682,306.559836 C1685.32736,311.704739 1689.23127,316.404705 1693.14495,320 C1693.37948,319.074327 1693.66287,318.16911 1694,317.294579 Z M1698.55518,304 C1698.59518,302.957331 1698.57518,301.914663 1698.48518,300.871994 C1697.53518,299.677269 1696.97518,298.72692 1696.12018,297 C1695.55518,297.347556 1694.98518,297.689682 1694.42518,298.048099 L1698.55518,304 Z M1698.1225,298.7325 C1697.9625,297.9025 1697.7725,297.0775 1697.5125,296.2675 C1697.2975,296.3825 1697.0875,296.5125 1696.8775,296.6275 C1697.3425,297.5025 1697.7225,298.1425 1698.1225,298.7325 Z M1639.09041,280.510896 C1637.5399,293.605423 1636.59236,306.114009 1635.89311,322.978945 C1637.86419,320.961267 1640.04808,319.15249 1642.43971,317.639231 C1642.90081,317.348808 1643.50379,317.486376 1643.79261,317.950035 C1644.08143,318.408598 1643.94462,319.020016 1643.48859,319.310439 C1632.94917,325.995272 1626.3671,338.412145 1626.72686,350.941111 C1626.74206,351.481196 1626.7674,352.031472 1626.78766,352.586843 C1626.97008,356.856576 1627.17782,361.702061 1623.86906,364.738769 C1621.03659,367.342389 1617.22618,367.199725 1613.54245,367.057061 C1611.66258,366.990824 1609.72191,366.914396 1607.97885,367.220105 C1601.61973,368.335942 1597.46984,374.353311 1593.43648,380.951526 C1588.44546,389.119047 1581.68604,396.965573 1575.15464,404.557342 C1572.66673,407.44629 1570.28523,410.22824 1568,413 C1573.92842,409.316209 1583.58111,403.497551 1588.17691,401.775391 C1598.69606,397.831748 1608.79465,392.451273 1618.56894,387.249128 C1621.51795,385.679822 1624.56831,384.054471 1627.15249,381.919604 C1628.39391,380.895479 1629.5644,379.718501 1630.69941,378.582283 C1631.78882,377.491921 1632.9137,376.360799 1634.12979,375.336674 C1636.56703,373.27314 1639.33363,371.642693 1642.00902,370.068292 C1643.07816,369.436494 1644.15237,368.804696 1645.20124,368.142327 C1663.89351,356.418394 1676.01384,335.380532 1676.82964,313.242119 L1676.83977,312.951696 C1676.90057,311.255012 1676.96138,309.497186 1677.79744,307.89731 C1678.58283,306.389147 1679.87999,305.349737 1681.25315,304.330707 C1685.63106,301.080004 1690.24713,298.104438 1695,295.419295 C1682.94554,292.958339 1672.1173,287.058159 1663.01692,281.509544 C1660.75195,280.12876 1658.18804,278.564549 1655.46704,277.677994 C1650.73444,276.129069 1644.0713,277.300953 1639.09041,280.510896 Z M1615,281.842656 C1609.99073,273.5821 1605.48289,264.972934 1601.58395,256.227355 C1600.93412,256.181884 1600.28941,256.126308 1599.67029,256.070733 C1599.44516,256.050523 1599.22514,256.020209 1599,256 C1603.09338,265.61458 1607.92869,275.016961 1613.39335,284 C1613.95107,283.297726 1614.48321,282.575244 1615,281.842656 Z M1617,278.403196 L1605.96761,256.035853 C1605.59296,256.051219 1605.21831,256.066585 1604.84859,256.066585 C1604.22254,256.066585 1603.61127,256.030731 1603,256 C1606.63803,264.533087 1610.81831,272.927884 1615.45211,281 C1615.99437,280.154886 1616.51197,279.289285 1617,278.403196 Z M1619,274.782629 C1618.47635,273.796244 1617.95269,272.825352 1617.43883,271.875117 C1614.66395,266.726291 1612.04568,261.846009 1609.73573,256 C1608.82545,256.216901 1607.91028,256.351174 1607,256.428638 L1617.47798,278 C1618.02121,276.951643 1618.53018,275.877465 1619,274.782629 Z M1621,271.08012 C1618.41071,266.2379 1616.49603,261.790539 1614.30357,256.693738 L1613.60417,255.067542 C1613.59425,255.04676 1613.59425,255.020782 1613.58929,255 C1612.8254,255.368882 1612.04167,255.701395 1611.21825,255.955975 C1611.14385,255.976757 1611.0744,255.992343 1611,256.013126 C1613.30159,261.774952 1615.9256,266.622368 1618.69841,271.72956 C1619.10516,272.472518 1619.5119,273.231064 1619.92857,274 C1620.31548,273.03883 1620.67758,272.062073 1621,271.08012 Z M1618.3025,251.319409 C1619.5825,254.151808 1621.3075,257.809475 1622.4725,260 C1622.5825,258.767193 1622.6675,257.534386 1622.6975,256.296485 L1619.8775,250 C1619.8075,250.061131 1619.7375,250.127356 1619.6675,250.188487 C1619.2425,250.555273 1618.7825,250.937341 1618.3025,251.319409 Z M1617,253.014778 C1618.71978,256.738916 1620.60769,260.418719 1622.6205,264 C1622.76461,263.147783 1622.89432,262.285714 1623,261.423645 C1621.72698,259.300493 1619.33947,254.08867 1618.40272,252 C1617.95116,252.344828 1617.48519,252.684729 1617,253.014778 Z M1614,253.901771 C1614.02016,253.927536 1614.04537,253.953301 1614.06049,253.984219 L1614.77127,255.597101 C1616.8683,260.353301 1618.70825,264.532367 1621.10775,269 C1621.2741,268.453784 1621.43541,267.902415 1621.5816,267.351047 C1621.59672,267.294364 1621.63201,267.258293 1621.65217,267.206763 C1621.71267,266.825443 1621.79332,266.464734 1621.86389,266.14525 C1621.9143,265.908213 1621.94959,265.671176 1622,265.439291 C1619.6862,261.399356 1617.52363,257.225443 1615.55766,253 C1615.05356,253.314332 1614.53434,253.613205 1614,253.901771 Z M1623.0675,248 C1622.5475,248.489487 1622.0075,248.963835 1621.4675,249.438183 L1623.5325,254 C1623.4925,251.986543 1623.3325,249.978133 1623.0675,248 Z M1659.09782,157 C1658.79371,154.139815 1658.667,151.243621 1659.10796,148.357715 C1659.30562,147.061372 1659.63,145.785606 1660,144.525273 C1657.9929,144.046861 1655.86416,143.902823 1653.69487,144.062294 C1653.63405,144.129168 1653.56816,144.201187 1653.48706,144.25263 C1647.90672,147.591227 1650.38011,153.604817 1651.70297,156.038031 C1651.72832,156.084329 1651.72832,156.130627 1651.74859,156.176925 C1654.03952,156.675914 1656.49771,156.953702 1659.09782,157 Z M1650,144 C1646.10944,144.870466 1642.27572,146.642487 1639,149.19171 C1641.73837,151.834197 1645.19493,153.782383 1649.22499,155 C1647.33913,150.720207 1647.6388,146.792746 1650,144 Z M1674.98375,71.8887022 C1665.54212,75.901512 1656.63097,79.6953486 1647.81163,84.9557959 L1647.21993,85.3122638 C1642.14461,88.3473331 1636.90605,91.4740655 1630.94318,91.1685216 C1628.26525,91.0259345 1625.73523,90.1653192 1623.29194,89.3352583 C1621.91981,88.8667577 1620.50178,88.3880722 1619.09905,88.051974 C1616.16098,87.349223 1613.11068,87.2422827 1610.07569,87.4357938 C1609.62681,91.7694246 1611.16216,96.6886812 1615.01329,97.824286 C1616.18648,98.1705691 1617.46679,98.1349223 1618.82871,98.0941831 C1620.40997,98.0432591 1622.04733,97.9974276 1623.63369,98.5677761 C1624.8936,99.0209996 1625.93417,99.8001365 1626.93903,100.558904 C1627.86738,101.256562 1628.74983,101.918574 1629.73429,102.26995 C1632.36121,103.206951 1635.29419,101.816726 1637.29372,100.48761 C1641.64473,97.5900357 1645.01127,93.2818669 1646.77616,88.3677026 C1646.95979,87.8533704 1647.52598,87.5885657 1648.04117,87.7718921 C1648.55635,87.9552184 1648.82159,88.5204746 1648.63796,89.0348068 C1647.88304,91.0921357 1646.87818,93.0476165 1645.65398,94.8605103 C1645.40404,97.8904872 1647.05161,101.001942 1649.71934,102.473646 C1652.42788,103.970811 1656.02907,103.680544 1658.46726,101.770895 C1659.10487,101.27184 1659.79348,100.411224 1660.5229,99.5047774 C1662.15516,97.4729105 1664.00677,95.176239 1666.39395,95.7109408 C1666.72551,95.7873268 1666.99585,96.0266695 1667.10807,96.3525829 C1668.74034,101.073236 1667.52124,105.941569 1666.33785,110.652037 C1665.4299,114.282917 1664.48624,118.036014 1664.90961,121.621063 C1665.03203,122.659912 1665.26667,123.678391 1665.51151,124.752887 C1665.78186,125.929231 1666.0573,127.141222 1666.17972,128.38886 C1666.61329,132.814154 1665.08814,136.995013 1663.6089,141.038377 C1662.65505,143.645685 1661.67059,146.344656 1661.24722,149.038534 C1660.61981,153.046252 1661.19111,157.038692 1661.79301,161.265382 C1661.92053,162.166737 1662.04805,163.078276 1662.16537,164 C1662.85398,163.047722 1663.50688,162.095443 1664.18019,161.102425 C1664.69538,160.343658 1665.21566,159.574706 1665.76655,158.790477 C1666.80712,157.313681 1667.35801,155.979473 1667.44983,154.711466 C1667.51614,153.825388 1667.12847,153.046252 1666.6796,152.139805 C1666.52148,151.818984 1666.35825,151.49307 1666.21543,151.162064 C1665.26667,148.962148 1665.32788,146.10022 1666.37865,143.696609 C1667.23559,141.736035 1668.67403,140.315256 1670.42871,139.693984 C1671.82634,139.200021 1673.15766,139.510657 1674.33085,139.780554 C1674.94295,139.923142 1675.51934,140.055544 1676.06513,140.075913 C1677.05469,140.101375 1677.7178,139.724538 1678.24318,138.823184 C1678.66145,138.105155 1679.02361,137.376942 1679.37557,136.679284 C1680.40084,134.63214 1681.36999,132.702121 1683.51234,131.062369 C1684.10404,130.609145 1684.4968,130.211938 1684.76715,129.784177 C1684.18565,129.870748 1683.58885,129.942041 1682.96655,129.987873 C1682.19633,130.043889 1681.421,130.074444 1680.65078,130.074444 C1677.94223,130.074444 1675.249,129.717976 1672.62207,129.015225 C1672.09668,128.872638 1671.78043,128.332843 1671.92325,127.808326 C1672.06608,127.283809 1672.60677,126.973173 1673.13215,127.110668 C1676.29467,127.961098 1679.5541,128.266642 1682.81863,128.022207 C1686.48103,127.747218 1689.4038,126.764385 1691.51044,125.094078 C1693.99965,123.113135 1695.24935,120.016957 1694.62195,117.38928 C1694.11187,115.270842 1692.53061,113.539427 1690.6433,111.690886 C1688.54176,113.004725 1686.11377,113.941726 1683.53275,114.37458 C1683.47664,114.384765 1683.42053,114.389857 1683.36952,114.389857 C1682.89514,114.389857 1682.47687,114.048667 1682.39526,113.564889 C1682.30344,113.025094 1682.6656,112.520947 1683.20629,112.429284 C1688.37853,111.558484 1692.84176,108.482675 1694.85149,104.403664 C1697.04485,99.947816 1696.00938,94.2341453 1692.4898,91.3976795 L1692.16335,91.1379672 C1691.66347,90.7560374 1691.10238,90.3180911 1690.69431,89.6917262 C1689.83737,88.372795 1689.89348,86.5395317 1690.85244,84.7877467 C1691.235,84.0900882 1691.69917,83.4688156 1692.14805,82.873005 C1692.53061,82.3688576 1692.88767,81.8901722 1693.18862,81.3809324 C1694.09146,79.8379357 1694.15267,77.8722701 1693.36205,75.850588 C1692.62243,73.9562159 1691.2248,72.3164637 1689.59253,71.3438156 C1689.88328,75.2191306 1688.46525,79.226848 1685.51187,81.8545254 C1685.32314,82.0225745 1685.0885,82.1040529 1684.85386,82.1040529 C1684.58352,82.1040529 1684.30807,81.9920202 1684.11424,81.773047 C1683.75208,81.3656552 1683.78779,80.7443826 1684.19585,80.3777299 C1687.83275,77.1491495 1688.68968,71.1808589 1686.24639,67 C1682.45647,68.700861 1678.66145,70.325336 1674.98375,71.8887022 Z M1501,72.4073648 L1503.25537,82.9638715 C1517.01671,87.5393689 1529.83618,94.278748 1541.37778,103 C1559.52768,93.4799319 1579.91258,89.8549245 1599.63563,86.3462006 C1605.82645,85.2440365 1612.84713,83.9952544 1619.5216,85.5878308 C1621.0133,85.9417367 1622.46937,86.4372049 1623.8847,86.9175058 C1626.30299,87.7365451 1628.58891,88.5100822 1630.99193,88.6364772 C1636.33762,88.9297135 1641.31166,85.9619599 1646.12278,83.1003781 L1646.71844,82.7464722 C1655.63302,77.4530514 1664.59341,73.6662585 1674.0782,69.6519547 C1676.67976,68.5548465 1679.33225,67.4274035 1682,66.2645699 C1680.86468,66.1230075 1679.72935,65.910664 1678.6093,65.7033763 C1676.26738,65.2736334 1674.05274,64.859058 1671.93483,65.0461225 C1664.27267,65.7235995 1657.68474,70.5872774 1651.32083,75.284114 L1650.00731,76.259883 C1643.08337,81.3460161 1634.81537,86.3917027 1626.02807,85.2440365 C1624.04253,84.9861908 1622.12826,84.4199414 1620.28018,83.8739152 C1619.25686,83.5705673 1618.203,83.2571078 1617.15932,83.0043179 C1611.50307,81.6443082 1605.61771,81.9122655 1600.07347,82.3015619 C1584.6117,83.3936144 1569.12956,85.759728 1554.0598,89.3341773 L1553.82561,89.3897911 C1551.10694,90.0369333 1548.29664,90.7042986 1545.41505,90.3655602 C1543.04768,90.0874913 1540.80758,89.1319454 1538.82713,88.2825713 C1532.41739,85.5423286 1525.62072,82.7110816 1519.04807,79.970839 C1513.06599,77.4833862 1506.89553,74.9150407 1501,72.4073648 Z M1506.77881,240 C1507.15212,233.068213 1507.78112,225.728674 1508.68628,217.848863 C1508.83458,216.533862 1509.00845,215.198474 1509.17721,213.852892 C1510.27158,205.274805 1511.40174,196.411293 1507.89363,189.030978 C1507.52032,188.689486 1507.15723,188.322509 1506.83506,187.904563 C1504.99407,185.529406 1504.95315,182.49675 1505.24976,180.366244 C1505.4492,178.928918 1505.82251,177.537464 1506.18048,176.186785 C1506.42595,175.264245 1506.68164,174.306028 1506.87086,173.368198 C1507.23394,171.594476 1507.3669,169.779979 1507.28508,167.965481 C1506.2623,167.450694 1505.50545,166.640287 1505.4492,165.304899 C1505.41852,164.591332 1505.65375,163.974607 1505.85831,163.429239 C1505.98616,163.092843 1506.10889,162.771738 1506.13957,162.491409 C1506.2981,161.069373 1504.37017,160.044895 1502.95363,159.769663 C1502.48316,159.677919 1502.00245,159.616756 1501.51663,159.550496 C1499.85463,159.326232 1498.13125,159.096872 1496.73517,157.944972 C1495.08339,156.579002 1494.34699,154.254815 1494.55154,151.038669 C1494.95043,144.78477 1497.75283,139.300504 1502.03825,136.379979 C1505.46454,134.040501 1509.8727,133.59707 1513.48309,134.850908 C1515.71785,132.200519 1515.49795,128.938501 1514.60303,126.915031 C1513.6365,124.72846 1511.7904,122.786541 1509.10562,121.135144 C1508.80901,120.951656 1508.50218,120.773264 1508.20046,120.594873 C1506.7021,119.713108 1505.14748,118.80586 1504.11448,117.271692 C1502.97409,115.574424 1502.62634,113.255333 1503.11216,110.574363 C1504.00197,105.671143 1507.10609,101.109416 1511.63187,98.0563711 C1515.2576,95.6098581 1519.43563,94.5293148 1523,94.0858843 C1516.19344,90.4110179 1509.07493,87.3222951 1501.67005,84.8859759 C1501.33765,84.773844 1501.08707,84.4986113 1501.01036,84.152022 L1498.63241,73 C1496.39254,75.0438578 1493.52366,75.6707767 1490.93092,76.0887227 L1490.1843,76.2059515 C1487.08018,76.6901572 1483.86867,77.1947505 1481.6288,79.1213795 C1479.37358,81.0582024 1478.17182,84.411964 1478.04909,89.0909202 C1478.00306,91.0889058 1478.07466,94.0400122 1479.27642,96.5578819 C1479.62416,97.2918358 1480.06395,97.9850145 1480.52931,98.7240653 C1481.31685,99.9779033 1482.13507,101.272516 1482.51349,102.79649 C1483.07602,105.064612 1482.7743,106.710911 1482.08393,108.408179 C1482.29871,108.311338 1482.50327,108.199206 1482.71805,108.112559 C1483.6948,107.715001 1484.69712,107.388799 1485.66364,107.077888 C1486.63016,106.766977 1487.54554,106.471357 1488.43536,106.109477 C1488.94163,105.900504 1489.52461,106.140058 1489.72916,106.644651 C1489.93883,107.149245 1489.69337,107.725195 1489.18709,107.934168 C1488.22569,108.331726 1487.2336,108.647734 1486.27219,108.958645 C1485.29544,109.269556 1484.37494,109.570273 1483.4749,109.942347 C1479.28664,111.6651 1475.79387,114.993377 1473.88128,119.08619 C1470.1635,127.042454 1471.72323,138.867267 1480.65205,145.192523 C1481.56231,144.285274 1482.56975,143.46977 1483.66923,142.791882 C1484.13459,142.506455 1484.74314,142.649168 1485.03463,143.112986 C1485.32101,143.576805 1485.17782,144.183336 1484.71246,144.473859 C1480.23271,147.241477 1477.35871,152.41993 1477.39451,157.674836 C1477.43031,162.924645 1480.37078,168.072516 1484.88633,170.773875 C1485.32101,171.033817 1485.77103,171.278468 1486.22105,171.518022 C1487.68362,172.308042 1489.19221,173.123546 1490.27123,174.525195 C1491.99461,176.767832 1492.20428,180.141981 1490.84399,183.786266 C1490.01554,186.008515 1488.81378,188.082954 1487.65293,190.091134 C1485.87842,193.154372 1484.20619,196.049412 1483.81753,199.331817 C1483.18341,204.683565 1486.81937,210.356417 1491.94347,212.063879 C1493.05318,210.534808 1494.572,209.296261 1496.3772,208.618373 C1496.88347,208.424691 1497.46134,208.684633 1497.65566,209.194323 C1497.84999,209.704013 1497.5943,210.274866 1497.0778,210.468549 C1493.63105,211.768259 1491.39629,215.759133 1492.09177,219.362643 C1492.26564,220.264795 1492.57759,220.957973 1493.0225,221.421792 C1493.77424,222.206714 1495.04759,222.558401 1496.92438,222.481947 C1497.27724,222.466656 1497.63009,222.446269 1497.98806,222.420784 C1499.37392,222.334137 1500.80581,222.237296 1502.22746,222.670533 C1504.24233,223.277064 1506.08843,225.305631 1505.55148,227.522783 C1505.36226,228.3179 1504.90713,228.944819 1504.50313,229.500382 C1504.40086,229.643095 1504.29858,229.780711 1504.20142,229.928521 C1503.11216,231.544239 1502.86158,233.766489 1503.5315,235.876606 C1504.10937,237.691103 1505.29578,239.179399 1506.77881,240 Z M1453.38677,388.201767 C1489.16444,400.342571 1526.25155,409.361745 1563.61888,415 C1566.90521,410.805627 1570.61952,406.529908 1574.21156,402.386375 C1580.72817,394.872092 1587.46896,387.103604 1592.4061,379.09108 C1596.70635,372.105541 1601.16454,365.735178 1608.36899,364.479408 C1610.3255,364.138774 1612.38901,364.215035 1614.37609,364.291297 C1617.83566,364.418399 1621.1067,364.540417 1623.35872,362.491529 C1626.00307,360.081671 1625.82474,355.922886 1625.65151,351.906456 C1625.62604,351.342122 1625.60566,350.782872 1625.58528,350.238875 C1625.31524,340.914656 1628.73913,331.666698 1634.71057,324.548973 C1635.42388,306.485205 1636.39195,293.42418 1638.02747,279.722561 C1634.40486,276.478912 1630.06385,273.967372 1625.44261,272.467566 L1625.32543,272.426893 C1624.54588,272.167604 1623.59819,271.832055 1622.90017,271.099946 C1620.14373,278.944695 1615.33906,286.164101 1609.13835,291.680338 C1608.94983,291.848113 1608.71546,291.929458 1608.48108,291.929458 C1608.21104,291.929458 1607.941,291.817608 1607.7423,291.598992 C1607.38055,291.192265 1607.41621,290.572007 1607.82382,290.205952 C1609.62238,288.604464 1611.29866,286.850453 1612.83228,284.974425 C1607.19712,275.650205 1602.22432,265.863334 1598.03616,255.862931 C1597.29738,255.781586 1596.55859,255.690072 1595.8198,255.593474 C1599.06537,264.709246 1603.32486,273.438627 1608.51165,281.552833 C1608.65941,281.781617 1608.59318,282.086662 1608.3588,282.234101 C1608.27728,282.284941 1608.18557,282.310362 1608.09386,282.310362 C1607.93081,282.310362 1607.77287,282.229017 1607.67606,282.081578 C1602.36189,273.764008 1598.00559,264.805844 1594.71927,255.446036 C1593.58816,255.288429 1592.46214,255.120654 1591.34123,254.937627 C1594.17409,261.318159 1597.41456,267.622429 1601.0066,273.692831 C1601.14416,273.926699 1601.06774,274.231745 1600.83336,274.369015 C1600.75694,274.414772 1600.67032,274.435108 1600.58371,274.435108 C1600.41557,274.435108 1600.25253,274.348679 1600.16081,274.196156 C1596.43121,267.89697 1593.07865,261.353747 1590.16426,254.734263 C1589.28281,254.581741 1588.40136,254.413966 1587.51991,254.241107 C1589.4,258.730357 1591.69788,263.062001 1594.39828,267.124188 C1594.55113,267.352972 1594.48489,267.658018 1594.26071,267.805456 C1594.17919,267.861381 1594.08238,267.886802 1593.99067,267.886802 C1593.83272,267.886802 1593.67477,267.81054 1593.57797,267.668186 C1590.71963,263.367046 1588.29946,258.77103 1586.34804,254.007239 C1585.45641,253.824211 1584.56986,253.631016 1583.68332,253.427652 C1585.45131,257.393242 1587.44349,261.246981 1589.63947,264.887189 C1589.78213,265.121057 1589.7057,265.421018 1589.47133,265.563373 C1589.38981,265.60913 1589.30319,265.63455 1589.21658,265.63455 C1589.04844,265.63455 1588.8854,265.548121 1588.79368,265.395598 C1586.45504,261.511354 1584.34058,257.393242 1582.48088,253.153112 C1581.69623,252.965 1580.91669,252.771805 1580.13204,252.568441 L1583.74955,259.564148 C1583.87183,259.8031 1583.78012,260.103061 1583.53556,260.230164 C1583.46423,260.265752 1583.3878,260.286089 1583.31138,260.286089 C1583.13305,260.286089 1582.95981,260.189491 1582.8732,260.021716 L1578.83789,252.222723 C1578.23667,252.060033 1577.64055,251.897342 1577.03933,251.724483 L1579.90786,257.26614 C1580.03014,257.505092 1579.93843,257.805053 1579.69387,257.932155 C1579.62254,257.967744 1579.54611,257.98808 1579.46968,257.98808 C1579.29136,257.98808 1579.11812,257.891483 1579.03151,257.723708 L1575.7248,251.343176 C1568.95343,249.319709 1562.34511,246.742075 1555.94059,243.600109 C1555.45146,243.361156 1555.24766,242.771402 1555.49222,242.283329 C1555.73169,241.795257 1556.32272,241.596977 1556.81185,241.83593 C1570.40553,248.511338 1584.9418,252.644703 1600.01306,254.119089 C1603.25353,254.434302 1607.00351,254.688507 1610.45288,253.661521 C1613.88187,252.639619 1616.88287,250.346695 1619.11452,248.470666 C1634.71057,235.338464 1643.82567,215.93758 1651.86571,198.819453 C1656.17106,189.65284 1661.04705,179.271131 1660.71587,168.452189 C1660.63944,165.925397 1660.2675,163.332512 1659.91085,160.826056 C1659.80385,160.073611 1659.69685,159.316082 1659.59495,158.553468 C1650.10281,158.441618 1642.37357,155.508099 1637.21735,150.027451 C1637.03393,149.829172 1636.93712,149.564799 1636.9524,149.295342 C1636.96769,149.025885 1637.09507,148.771681 1637.30397,148.598822 C1644.06005,142.919895 1653.03758,140.515121 1660.73116,142.335224 C1660.78211,142.345393 1660.81777,142.375897 1660.86363,142.396233 C1661.17443,141.481097 1661.50051,140.571045 1661.8266,139.676246 C1662.06097,139.040735 1662.28516,138.410308 1662.50934,137.784965 C1655.80931,137.205379 1648.95642,138.735689 1643.15822,142.136945 C1643.00027,142.228458 1642.82704,142.274215 1642.6589,142.274215 C1642.32262,142.274215 1641.99144,142.101356 1641.80802,141.786143 C1641.53288,141.318407 1641.69083,140.7134 1642.15958,140.438859 C1648.43163,136.763063 1655.87045,135.125986 1663.11056,135.853011 C1663.12584,135.853011 1663.14113,135.863179 1663.15641,135.868263 C1663.9971,133.219453 1664.55247,130.611315 1664.28752,127.921832 C1664.17543,126.798248 1663.92577,125.700085 1663.66083,124.535829 C1663.53345,123.981663 1663.40607,123.422413 1663.29398,122.847911 L1661.13876,121.749748 C1660.51716,121.434535 1659.87518,121.109153 1659.25868,121.04306 C1658.54027,120.966798 1657.74034,121.241339 1656.97098,121.500628 L1644.48803,125.735674 C1644.38104,125.771262 1644.27404,125.786515 1644.17214,125.786515 C1643.75944,125.786515 1643.3773,125.527226 1643.23974,125.120499 C1643.0665,124.607006 1643.34164,124.047756 1643.85624,123.869813 L1656.33919,119.634767 C1657.22064,119.334806 1658.31099,118.963667 1659.46248,119.080601 C1660.45093,119.182283 1661.29161,119.614431 1662.0355,119.990653 L1662.9679,120.463474 C1662.69276,116.772425 1663.59969,113.096629 1664.49642,109.532682 C1665.59696,105.145114 1666.64145,100.986329 1665.51544,97.0156553 C1664.44547,97.2444393 1663.23284,98.7544137 1662.14249,100.111865 C1661.33747,101.113431 1660.5834,102.053987 1659.76818,102.694583 C1656.72642,105.073936 1652.23765,105.434907 1648.85452,103.569046 C1646.2815,102.150585 1644.46256,99.5068589 1643.91738,96.6343486 C1642.33791,98.4900411 1640.51896,100.14237 1638.48093,101.494738 C1636.68746,102.689499 1634.22144,103.914764 1631.65861,103.914764 C1630.83321,103.914764 1629.99762,103.787662 1629.16712,103.492785 C1627.90354,103.040301 1626.85905,102.257351 1625.85532,101.504906 C1624.92801,100.808386 1624.05166,100.152538 1623.0734,99.7966519 C1621.84039,99.3543362 1620.46472,99.3950089 1619.00243,99.4407657 C1617.55033,99.4814384 1616.04728,99.5271952 1614.5748,99.0950477 C1609.8109,97.686755 1607.81363,92.0485003 1608.21104,87 C1605.4546,87.2694567 1602.72364,87.7575293 1600.14043,88.2150973 C1592.98184,89.4912036 1585.73663,90.7927304 1578.54747,92.3789661 C1578.82261,99.0899636 1574.47141,102.704751 1570.16097,103.848671 C1570.07435,103.869007 1569.99283,103.879175 1569.90621,103.879175 C1569.46804,103.879175 1569.07062,103.589382 1568.95343,103.147067 C1568.81077,102.623405 1569.12667,102.079408 1569.65146,101.942137 C1571.36341,101.489654 1576.67758,99.5221111 1576.58587,92.8212819 C1564.57676,95.571774 1552.77145,99.2119817 1541.85778,105.0536 C1541.71003,105.134945 1541.55208,105.170534 1541.38904,105.170534 C1541.17504,105.170534 1540.96105,105.099357 1540.78782,104.96717 C1536.23791,101.474401 1531.47401,98.312098 1526.53687,95.4650081 C1522.78689,95.6073626 1517.53386,96.4055646 1513.20304,99.3238317 C1509.13207,102.074324 1506.34506,106.156847 1505.55022,110.529164 C1505.28019,112.039138 1505.17828,114.169371 1506.24825,115.765775 C1507.0278,116.924948 1508.31685,117.682477 1509.67724,118.480679 C1509.99314,118.663706 1510.30903,118.851817 1510.61474,119.039929 C1513.63612,120.895621 1515.73529,123.13262 1516.86131,125.689917 C1517.93637,128.13028 1518.23698,131.994187 1515.79134,135.24292 C1516.81036,135.82759 1517.72747,136.569867 1518.47135,137.474835 C1518.81782,137.896815 1518.75158,138.517074 1518.32869,138.862792 C1517.9058,139.20851 1517.2842,139.142416 1516.94283,138.720437 C1513.72783,134.785352 1507.47107,134.937875 1503.64976,137.551097 C1499.8794,140.12873 1497.40828,145.034876 1497.04653,150.67313 C1496.88349,153.215175 1497.37771,154.979354 1498.50882,155.91991 C1499.4667,156.707944 1500.83218,156.890971 1502.27409,157.089251 C1502.79379,157.160428 1503.31348,157.231605 1503.8179,157.328203 C1506.4011,157.821359 1508.86712,159.656715 1508.5818,162.193676 C1508.52066,162.717337 1508.34743,163.190157 1508.18948,163.601969 C1508.03153,164.023948 1507.89396,164.384918 1507.90925,164.695048 C1507.9602,165.849136 1509.8199,166.169433 1512.06174,166.433806 L1512.45916,166.479563 C1515.57735,166.86087 1518.49683,168.879253 1520.26992,171.873781 C1521.54878,174.029435 1522.09396,176.454545 1521.86977,178.732217 C1523.96385,176.856188 1525.31405,173.887081 1525.45671,170.602759 C1525.60447,167.237092 1524.6364,163.56638 1522.41495,159.041541 L1522.07867,158.360273 C1520.85585,155.904658 1519.59227,153.367697 1519.80627,150.525692 C1520.03554,147.510827 1521.84939,145.146726 1523.6021,142.86397 C1524.81983,141.277734 1525.97132,139.777928 1526.62349,138.084926 C1526.7101,137.790049 1526.80181,137.50534 1526.89353,137.240967 C1527.97878,133.077098 1525.62995,128.13028 1521.60483,126.498287 C1521.10042,126.294924 1520.85585,125.720422 1521.06475,125.217097 C1521.26855,124.713772 1521.8443,124.469736 1522.34871,124.678183 C1526.09869,126.20341 1528.61566,129.919879 1529.05894,133.860048 C1530.40404,132.690708 1531.9937,132.355158 1533.50694,132.238224 C1534.02664,132.197551 1534.53105,132.217887 1535.02018,132.238224 C1535.70802,132.263644 1536.35509,132.294149 1536.92065,132.141626 C1537.6951,131.938262 1538.43898,131.394265 1539.33062,130.387615 C1541.79664,127.601535 1543.2895,124.022336 1543.52897,120.310951 L1543.56464,119.680524 C1543.66144,117.829916 1543.77353,115.725103 1545.3632,114.367651 C1547.10572,112.878013 1549.38832,113.299992 1551.40087,113.666047 C1551.83396,113.747392 1552.26194,113.823653 1552.67974,113.884662 C1555.74698,114.306642 1559.00783,113.218647 1561.20891,111.052825 C1563.40489,108.881919 1564.5309,105.633186 1564.13858,102.577649 C1564.06725,102.038735 1564.45447,101.545579 1564.99455,101.474401 C1565.52954,101.413392 1566.02886,101.784531 1566.10019,102.328528 C1566.56893,105.983988 1565.22383,109.863148 1562.59986,112.456033 C1559.9759,115.048919 1556.07816,116.340277 1552.41479,115.836953 C1551.97152,115.775944 1551.51296,115.689514 1551.04931,115.608169 C1549.31698,115.292955 1547.68146,114.992994 1546.65226,115.867457 C1545.70457,116.675827 1545.62305,118.256979 1545.54153,119.78729 L1545.50586,120.443137 C1545.24092,124.58667 1543.57483,128.582764 1540.81839,131.69931 C1540.09488,132.517849 1538.95359,133.6516 1537.43016,134.053243 C1536.57418,134.276943 1535.74368,134.246439 1534.94376,134.215934 C1534.49539,134.195598 1534.0674,134.180346 1533.6598,134.21085 C1531.35172,134.388793 1529.77225,135.080229 1528.76342,137.881562 C1528.69209,138.145935 1528.60547,138.405224 1528.50867,138.664512 C1528.50357,138.679764 1528.49848,138.695017 1528.49338,138.715353 C1528.49338,138.715353 1528.49338,138.720437 1528.49338,138.720437 C1528.48319,138.745858 1528.4781,138.776362 1528.46791,138.801783 C1527.70874,140.764241 1526.41459,142.452158 1525.16629,144.079067 C1523.51549,146.229637 1521.95639,148.263272 1521.77297,150.693467 C1521.59973,152.996559 1522.74103,155.289483 1523.84157,157.506146 L1524.18294,158.192498 C1525.6758,161.232783 1527.63741,165.833884 1527.42341,170.704441 C1527.20942,175.641091 1524.59055,180.013408 1520.75395,181.84368 C1520.61638,181.909773 1520.47372,181.940277 1520.32596,181.940277 C1520.0814,181.940277 1519.83684,181.848764 1519.65341,181.675905 C1519.3579,181.39628 1519.26109,180.969216 1519.40885,180.592994 C1520.34634,178.244145 1520.03554,175.36655 1518.56816,172.895683 C1518.06375,172.04664 1517.44724,171.304363 1516.7645,170.668852 C1516.67789,171.726343 1516.59127,172.778749 1516.50465,173.83624 C1516.41804,174.89373 1516.30594,176.01223 1515.66906,176.856188 C1515.02708,177.700147 1513.6616,178.081454 1512.89733,177.344261 C1512.29611,176.764675 1512.33178,175.808866 1512.40821,174.98016 C1512.57125,173.16514 1512.83619,170.684104 1513.06038,168.609796 C1512.78015,168.543703 1512.49992,168.482694 1512.21969,168.447105 L1511.83246,168.401349 C1511.20067,168.325087 1510.48226,168.238658 1509.76895,168.091219 C1509.79443,169.814725 1509.63648,171.538231 1509.29002,173.226149 C1509.09131,174.217546 1508.82636,175.20386 1508.57161,176.154584 C1508.20986,177.501868 1507.86849,178.77289 1507.69016,180.084585 C1507.49145,181.513214 1507.38955,184.202697 1508.87731,186.129567 C1509.15245,186.480369 1509.47344,186.800667 1509.8199,187.110796 C1509.83009,187.11588 1509.83519,187.120964 1509.84028,187.131132 C1510.16127,187.415841 1510.50774,187.690382 1510.8644,187.975091 C1511.55733,188.524173 1512.27573,189.093591 1512.89733,189.800279 C1514.63476,191.77799 1515.24107,194.4268 1515.7302,196.557033 C1515.85248,197.085779 1515.5213,197.614524 1514.99141,197.736542 C1514.91499,197.751794 1514.84366,197.761962 1514.76723,197.761962 C1514.31886,197.761962 1513.91126,197.451833 1513.80426,196.999349 C1513.25908,194.619995 1512.73429,192.682957 1511.49619,191.213656 C1512.78015,195.631729 1512.87186,200.34468 1512.5152,205.118639 C1513.12152,209.318097 1514.41567,213.471797 1516.3518,217.289948 C1516.47408,217.533984 1516.37728,217.828862 1516.13271,217.95088 C1516.06138,217.986468 1515.98495,218.001721 1515.90853,218.001721 C1515.7302,218.001721 1515.55697,217.905123 1515.46526,217.732264 C1514.00806,214.854669 1512.90752,211.794048 1512.17383,208.662249 C1512.09231,209.414694 1512.0006,210.172224 1511.90889,210.924669 C1512.24516,212.678679 1512.75467,214.392017 1513.45779,216.039262 C1513.56479,216.288383 1513.4476,216.578176 1513.19794,216.684941 C1513.1368,216.710362 1513.07057,216.725614 1513.00433,216.725614 C1512.81072,216.725614 1512.63239,216.613764 1512.55087,216.425653 C1512.16874,215.525769 1511.84775,214.600465 1511.56752,213.664993 C1511.40447,214.936015 1511.24653,216.191785 1511.10386,217.432303 C1508.60727,239.248128 1508.1691,256.925506 1509.718,273.062404 C1511.09877,287.435124 1514.22715,301.843432 1517.24853,315.784004 C1520.88133,332.530993 1524.6415,349.842316 1525.41086,367.260405 C1525.43633,367.804402 1525.01344,368.26197 1524.46827,368.287391 C1524.45298,368.287391 1524.4377,368.287391 1524.42241,368.287391 C1523.89762,368.287391 1523.45944,367.875579 1523.43906,367.346834 C1522.6748,350.09652 1518.93501,332.861459 1515.3175,316.200899 C1513.70745,308.773045 1512.07193,301.207921 1510.68097,293.581787 C1495.58934,304.746447 1479.07108,314.141843 1461.52871,321.49852 C1460.29061,322.017097 1459.1595,322.489917 1458.31881,323.288119 C1456.87181,324.660823 1456.42853,326.806309 1456.04131,329.267008 L1452.26585,353.172394 C1450.56919,363.904906 1448.82158,375.003472 1451.05832,385.796993 C1451.1806,386.381663 1451.31307,386.935829 1451.60349,387.291715 C1451.99072,387.698442 1452.61232,387.937394 1453.38677,388.201767 Z M1680.58925,346.729104 L1674.64613,339.887974 C1674.4685,339.684521 1674.4888,339.369168 1674.69181,339.191146 C1674.89482,339.013124 1675.20441,339.033469 1675.38712,339.236923 L1681.29979,346.047534 C1681.86822,345.498209 1682.43665,344.933625 1683,344.353782 C1681.14753,342.543045 1676.86909,337.299026 1675.01155,335 C1669.63178,349.033217 1659.80609,361.321818 1646.96062,369.353152 C1645.88974,370.019463 1644.80364,370.660342 1643.71754,371.301221 C1641.10886,372.83221 1638.4139,374.419148 1636.09958,376.372304 C1634.9475,377.343795 1633.85124,378.437358 1632.78544,379.500404 C1631.61813,380.670262 1630.40515,381.875725 1629.09065,382.959116 C1626.35002,385.212365 1623.20336,386.885772 1620.16328,388.498142 C1610.32237,393.721815 1600.14648,399.118424 1589.49352,403.101029 C1584.34722,405.023666 1572.12601,412.561625 1567,415.781279 C1574.38449,416.635785 1587.67151,417.775125 1590.82324,416.254309 L1592.5539,415.415063 C1599.86227,411.844451 1607.41932,408.156853 1615.49405,409.291107 C1616.26041,409.39792 1617.04708,409.540338 1617.84897,409.687842 C1621.18341,410.298203 1624.63458,410.923823 1626.64438,408.82825 C1627.29909,408.14668 1627.73556,407.195534 1628.0959,406.356288 C1629.15663,403.869067 1629.99912,401.229256 1630.81624,398.670826 C1631.63336,396.122568 1632.47585,393.482757 1633.54165,390.954845 C1636.19601,384.663041 1639.83497,380.3956 1644.34687,378.269509 C1645.9811,377.501471 1647.74221,377.008096 1649.45257,376.52998 C1651.80749,375.873842 1654.05075,375.232963 1655.82709,373.951205 L1655.18761,373.412053 C1654.97952,373.239117 1654.95415,372.923764 1655.12671,372.72031 C1655.29926,372.516857 1655.61393,372.486338 1655.81694,372.659274 L1656.59345,373.315412 C1656.71526,373.203513 1656.84214,373.101786 1656.9538,372.9848 C1657.14158,372.791519 1657.30907,372.577893 1657.47655,372.364266 L1655.75604,370.828191 C1655.55303,370.645083 1655.53273,370.334816 1655.71544,370.131362 C1655.89307,369.927909 1656.20774,369.907563 1656.41075,370.090672 L1658.0602,371.560624 C1658.33934,371.133372 1658.60833,370.685774 1658.86717,370.21783 L1656.92335,368.483388 C1656.72034,368.300279 1656.70004,367.990012 1656.88274,367.786559 C1657.06038,367.583105 1657.37504,367.56276 1657.57805,367.745868 L1659.34932,369.32772 C1659.35439,369.322634 1659.35439,369.317548 1659.35947,369.312461 C1659.55233,368.946245 1659.75026,368.580028 1659.95327,368.218898 C1660.01418,368.112085 1660.08523,368.010358 1660.14613,367.903545 L1658.43577,366.092807 C1658.24799,365.89444 1658.25814,365.584173 1658.45607,365.395978 C1658.65401,365.207783 1658.9636,365.217956 1659.15138,365.416323 L1660.67903,367.03378 C1661.01908,366.484455 1661.35912,365.93513 1661.72454,365.401064 C1660.68411,364.678804 1659.76549,363.763262 1659.0651,362.705303 C1658.91285,362.476418 1658.97882,362.171237 1659.20214,362.023734 C1659.42545,361.871143 1659.72996,361.932179 1659.88222,362.161065 C1660.51663,363.117297 1661.35404,363.951457 1662.29804,364.602509 C1662.53658,364.276983 1662.76496,363.941284 1663.00858,363.620845 L1660.0497,360.726716 C1659.85684,360.538522 1659.85177,360.223169 1660.03955,360.029888 C1660.23241,359.836607 1660.542,359.83152 1660.73486,360.019715 L1663.63283,362.852807 C1663.86629,362.562886 1664.10483,362.272964 1664.34844,361.988129 L1661.16626,358.875288 C1660.9734,358.687093 1660.96832,358.37174 1661.15611,358.178459 C1661.34897,357.985178 1661.65856,357.980092 1661.85142,358.168287 L1664.98285,361.230264 C1665.24169,360.935256 1665.52083,360.650421 1665.78474,360.3605 L1663.16083,357.751207 C1662.96797,357.557926 1662.96797,357.247659 1663.16083,357.054378 C1663.35369,356.861097 1663.66328,356.861097 1663.85614,357.054378 L1666.4496,359.653498 C1666.86577,359.216073 1667.28701,358.78882 1667.71841,358.361568 L1666.04358,356.866183 C1665.84057,356.683075 1665.82534,356.372808 1666.00298,356.169354 C1666.18568,355.965901 1666.49527,355.950642 1666.69828,356.128664 L1668.4188,357.664739 C1668.74869,357.344299 1669.08365,357.02386 1669.41862,356.708506 L1667.35807,354.35353 C1667.18043,354.150077 1667.20074,353.834723 1667.40375,353.656701 C1667.60676,353.478679 1667.91635,353.499025 1668.09905,353.702479 L1670.13931,356.037109 C1670.58593,355.625116 1671.03255,355.213122 1671.48425,354.806215 C1670.65191,353.997486 1669.91092,353.10229 1669.26636,352.130799 C1669.11411,351.901914 1669.18008,351.596733 1669.4034,351.449229 C1669.62671,351.301725 1669.93122,351.357675 1670.08348,351.58656 C1670.70266,352.517361 1671.41827,353.376953 1672.22016,354.14499 C1672.68708,353.732997 1673.15401,353.315917 1673.62093,352.909009 C1672.59573,351.993468 1671.68218,350.96094 1670.91075,349.8216 C1670.75849,349.597801 1670.81939,349.29262 1671.0427,349.14003 C1671.26601,348.98744 1671.57053,349.048476 1671.72279,349.272275 C1672.46885,350.381097 1673.36209,351.37802 1674.36192,352.263044 C1674.61568,352.044331 1674.86944,351.820532 1675.11813,351.601819 C1675.31099,351.43397 1675.49877,351.266121 1675.69163,351.098272 C1674.53448,349.958931 1672.5399,347.517487 1672.07805,346.947817 C1671.9055,346.739277 1671.93595,346.423924 1672.14911,346.256074 C1672.36227,346.083139 1672.67186,346.118743 1672.83934,346.327283 C1673.89499,347.6243 1675.5952,349.633405 1676.43262,350.44722 C1676.97567,349.97419 1677.51873,349.50116 1678.0567,349.023044 C1676.97567,347.929481 1674.61061,345.294756 1673.09818,343.601004 C1672.91547,343.39755 1672.93577,343.087283 1673.13878,342.904175 C1673.34179,342.726153 1673.65138,342.741412 1673.83409,342.944866 C1675.4125,344.714913 1677.88414,347.446278 1678.79261,348.377079 C1679.38642,347.848099 1679.9853,347.298774 1680.58925,346.729104 Z M1544.47111,253.83849 C1551.70335,258.343871 1559.53912,261.749878 1567.75338,263.964039 C1567.84033,263.989725 1567.92728,264 1568.00912,264 C1568.44387,264 1568.84794,263.707176 1568.96557,263.260234 C1569.10879,262.731096 1568.79167,262.186546 1568.26486,262.042702 C1560.23472,259.879914 1552.57797,256.550966 1545.5094,252.14833 C1545.04396,251.860643 1544.43531,252.004487 1544.14377,252.466841 C1543.86246,252.939469 1544.00567,253.550803 1544.47111,253.83849 Z M1543.86556,237.281671 C1544.13894,236.818075 1543.982,236.218424 1543.51626,235.946313 C1533.94319,230.352927 1525.87366,221.862066 1520.78591,212.040886 C1518.66981,207.954186 1517.41939,204.29077 1516.95365,200.844035 C1516.88277,200.309892 1516.38666,199.942038 1515.85004,200.007546 C1515.31342,200.078094 1514.93374,200.571924 1515.00967,201.106067 C1515.50579,204.779562 1516.82202,208.64958 1519.04443,212.937843 C1519.0495,212.95296 1519.05962,212.968078 1519.06468,212.978156 C1520.33029,217.750171 1522.14771,222.355896 1524.50174,226.704628 C1524.5878,226.870918 1524.75993,226.961622 1524.93205,226.961622 C1525.01305,226.961622 1525.08898,226.941465 1525.16492,226.901153 C1525.40286,226.775175 1525.49398,226.477869 1525.36236,226.241032 C1523.72719,223.21758 1522.35527,220.068151 1521.25166,216.828018 C1522.40083,218.687441 1523.65632,220.486395 1525.00292,222.219841 C1526.1521,225.585951 1527.65058,228.836162 1529.49837,231.87977 C1529.58949,232.030943 1529.75149,232.116607 1529.91855,232.116607 C1530.00461,232.116607 1530.09067,232.091412 1530.17167,232.04606 C1530.40454,231.904966 1530.47542,231.60766 1530.33873,231.375862 C1529.01744,229.204015 1527.88851,226.91627 1526.92665,224.568055 C1527.96445,225.777436 1529.05287,226.951543 1530.1818,228.080299 C1531.20947,230.61496 1532.43964,233.084112 1533.85713,235.422248 C1533.94825,235.573421 1534.11025,235.659085 1534.27731,235.659085 C1534.36337,235.659085 1534.44943,235.63389 1534.53043,235.588538 C1534.7633,235.447444 1534.83924,235.150138 1534.69749,234.91834 C1533.70525,233.285676 1532.81426,231.582464 1532.0144,229.843979 C1532.80414,230.569608 1533.61919,231.27508 1534.44437,231.960396 C1535.37079,234.212868 1536.53009,236.369597 1537.91214,238.375153 C1538.00832,238.511209 1538.1602,238.586795 1538.31713,238.586795 C1538.41332,238.586795 1538.50951,238.561599 1538.59557,238.50113 C1538.81831,238.349958 1538.874,238.042574 1538.72213,237.820854 C1537.72989,236.384714 1536.85915,234.867949 1536.10991,233.290715 C1536.73765,233.774467 1537.37046,234.248141 1538.01845,234.706698 L1540.49398,238.763163 C1540.5851,238.914336 1540.7471,239 1540.91416,239 C1541.00022,239 1541.08629,238.974805 1541.16729,238.929453 C1541.40016,238.788358 1541.47103,238.491052 1541.33435,238.259254 L1539.98774,236.052134 C1540.82304,236.596356 1541.6634,237.130499 1542.52402,237.634407 C1542.68095,237.725111 1542.85308,237.770463 1543.02014,237.770463 C1543.35932,237.765424 1543.68332,237.594095 1543.86556,237.281671 Z M1676.62742,104.379027 C1676.22775,103.88779 1675.78861,103.097759 1675.93664,102.130478 C1676.02052,101.593662 1675.66032,101.092297 1675.14223,101.011268 C1674.62414,100.930239 1674.13072,101.294869 1674.05178,101.82662 C1673.84948,103.148402 1674.24421,104.505634 1675.16197,105.634973 C1676.30177,107.042848 1678.10768,107.944293 1679.87905,107.994936 C1679.94813,107.994936 1680.01721,108 1680.09122,108 C1682.94318,108 1685.48923,106.394617 1687.60599,104.809492 C1688.03033,104.490441 1688.12902,103.877661 1687.81816,103.442131 C1687.50731,103.001537 1686.91027,102.905316 1686.481,103.224367 C1684.57147,104.652499 1682.32148,106.116081 1679.9284,106.035052 C1678.70965,105.999602 1677.41689,105.346308 1676.62742,104.379027 Z M1664.77228,87.5539245 C1664.48901,87.1197821 1663.89265,86.9895393 1663.44538,87.26932 C1662.99811,87.5442769 1662.86393,88.1231334 1663.15217,88.5572759 C1664.95616,91.3116684 1668.22123,93 1671.55588,93 C1671.9783,93 1672.40569,92.9710572 1672.82811,92.9179953 C1676.58021,92.4211434 1679.85025,89.7294604 1680.95849,86.2129068 C1681.11255,85.7160549 1680.82431,85.1902602 1680.3174,85.0407222 C1679.81049,84.8911843 1679.2688,85.1661412 1679.11474,85.6581692 C1678.23511,88.4463284 1675.54155,90.6701023 1672.56472,91.0608305 C1669.59286,91.4612063 1666.38742,90.0140649 1664.77228,87.5539245 Z M1497,116.955446 C1497,116.425743 1496.55642,116 1496.01087,116 C1496.01087,116 1496.01087,116 1496.00578,116 C1492.04418,116.014851 1488.23043,118.509901 1486.72125,122.064356 C1485.21717,125.618812 1486.11962,130 1488.92384,132.717822 C1489.11759,132.905941 1489.36742,133 1489.62235,133 C1489.87728,133 1490.12711,132.905941 1490.32085,132.717822 C1490.70835,132.341584 1490.70325,131.737624 1490.32085,131.361386 C1488.06728,129.178218 1487.33818,125.653465 1488.55165,122.79703 C1489.76511,119.940594 1492.83446,117.930693 1496.01597,117.920792 C1496.56152,117.915842 1497,117.485149 1497,116.955446 Z M1497.66799,173.188709 C1497.23799,172.870751 1496.63299,172.965145 1496.31299,173.392401 C1495.99799,173.819657 1496.08799,174.420796 1496.51799,174.738753 C1498.05299,175.861542 1498.96799,177.828905 1498.96299,180.004929 C1498.95799,182.180952 1498.03799,184.143348 1496.49799,185.261168 C1496.06799,185.574158 1495.97299,186.175297 1496.28799,186.607521 C1496.47799,186.865862 1496.77299,187 1497.07299,187 C1497.27299,187 1497.47299,186.940383 1497.64299,186.816181 C1499.67799,185.33569 1500.89299,182.792028 1500.89799,180.004929 C1500.90299,177.222798 1499.69299,174.6692 1497.66799,173.188709 Z M1641.01092,121.974971 C1641.08592,121.989988 1641.15592,122 1641.23092,122 C1641.67092,122 1642.07092,121.694646 1642.17592,121.249129 L1644.71092,110.186296 C1644.83092,109.665692 1644.50592,109.145088 1643.98592,109.024949 C1643.46592,108.90481 1642.94592,109.230187 1642.82592,109.750791 L1640.29092,120.813624 C1640.16592,121.334228 1640.49092,121.854832 1641.01092,121.974971 Z M1623.37888,123.947623 C1622.83888,135.951876 1623.03888,148.109767 1623.97888,160.088414 C1624.01888,160.605662 1624.44388,161 1624.94388,161 C1624.96888,161 1624.99388,161 1625.02388,160.994879 C1625.55888,160.948787 1625.95388,160.472509 1625.91388,159.924534 C1624.98388,148.032948 1624.78388,135.956997 1625.31888,124.034684 C1625.34388,123.486708 1624.92888,123.025794 1624.39388,123 C1623.85388,122.989945 1623.40388,123.399647 1623.37888,123.947623 Z M1606.56834,184.086638 C1605.93422,184.127115 1605.30521,184.162531 1604.69155,184.187829 C1603.8631,184.203007 1603.07044,183.833663 1602.99373,183.636342 C1603.19318,183.130391 1602.93748,182.563726 1602.42609,182.366405 C1601.91982,182.174144 1601.34195,182.42206 1601.14251,182.928011 C1600.89193,183.570569 1600.97375,184.228305 1601.37263,184.78991 C1601.95562,185.599432 1603.0909,186.019371 1604.10345,186.120561 C1604.26709,186.196454 1604.43585,186.262227 1604.60461,186.328001 C1604.68132,186.429191 1604.79894,186.500024 1604.96258,186.500024 C1604.97792,186.500024 1604.99326,186.494965 1605.00861,186.494965 C1607.48373,187.344962 1610.2708,187.127404 1612.61296,188.356864 C1613.89654,189.029779 1614.74545,190.264299 1615.9063,191.114297 C1617.05693,191.949116 1618.36097,192.556257 1619.73661,192.930661 C1619.75195,192.93572 1619.76217,192.925601 1619.77752,192.930661 C1621.35771,194.367561 1623.39815,195 1625.46416,195 C1627.99042,195 1630.55248,194.063991 1632.35768,192.5259 C1636.46413,189.02472 1637.25167,183.590807 1637.35906,180.66641 C1637.47157,177.478919 1636.99086,174.311667 1636.5255,171.245604 C1636.36697,170.218524 1636.21355,169.196503 1636.08059,168.169422 C1635.0169,160.04891 1634.99645,150.911436 1636.01923,141.733486 C1636.33629,138.900161 1637.81931,135.864455 1639.25632,132.92994 C1639.86487,131.685301 1640.43763,130.511495 1640.92344,129.357927 C1641.13311,128.857035 1640.89788,128.285311 1640.3916,128.077871 C1639.88533,127.865371 1639.30746,128.103168 1639.09779,128.60406 C1638.63242,129.707033 1638.06989,130.860601 1637.47668,132.074883 C1635.96809,135.161184 1634.40835,138.348675 1634.05549,141.515927 C1633.00203,150.97721 1633.02249,160.028672 1634.12197,168.417338 C1634.26005,169.454538 1634.41858,170.496797 1634.572,171.533996 C1635.02713,174.508987 1635.4925,177.590229 1635.3851,180.595577 C1635.29305,183.201224 1634.60779,188.022937 1631.0741,191.038404 C1628.39953,193.320243 1623.70498,193.998217 1620.98951,191.372332 C1620.31447,190.719655 1619.78774,189.900015 1619.22522,189.034839 C1618.56552,188.007758 1617.88026,186.950321 1616.89328,186.095264 C1614.06019,183.631283 1610.07647,183.86908 1606.56834,184.086638 Z M1606.94485,172.083945 C1607.4645,172.147784 1607.93513,171.73815 1607.99396,171.174237 C1608.05279,170.610324 1607.6753,170.099611 1607.15565,170.035772 C1605.10155,169.791055 1603.00332,170.812482 1601.55222,172.775536 C1600.10111,174.73859 1599.63048,177.180437 1600.2972,179.303089 C1600.42957,179.734004 1600.80215,180 1601.19434,180 C1601.29729,180 1601.40024,179.98404 1601.49829,179.946801 C1601.99343,179.765923 1602.25816,179.175411 1602.09148,178.638098 C1601.63556,177.185757 1601.98363,175.47274 1603.02784,174.062959 C1604.07205,172.653177 1605.53786,171.913707 1606.94485,172.083945 Z M1551.3552,125.872439 L1576.30169,115.396368 C1577.8248,114.755708 1579.3985,114.094547 1580.9975,113.997167 C1582.47001,113.904912 1583.98299,114.299559 1585.45043,114.678829 C1590.41443,115.955024 1595.50999,118.394656 1600.43351,120.75741 C1605.44811,123.161166 1610.62969,125.646926 1615.77586,126.969248 C1615.85682,126.989749 1615.93778,127 1616.01874,127 C1616.45897,127 1616.85367,126.702734 1616.97005,126.251709 C1617.10161,125.71868 1616.78788,125.180526 1616.26163,125.047269 C1611.29763,123.771074 1606.20207,121.331441 1601.27349,118.963562 C1596.25889,116.559807 1591.07731,114.074046 1585.93114,112.751724 C1584.39286,112.357078 1582.65217,111.916304 1580.88112,112.013684 C1578.94815,112.131565 1577.14168,112.890107 1575.55279,113.556393 L1550.6063,124.032463 C1550.10534,124.2426 1549.86751,124.821756 1550.07498,125.329159 C1550.28245,125.841687 1550.85424,126.082575 1551.3552,125.872439 Z M1612.53897,131.885073 C1612.68424,131.967164 1612.84507,132 1612.99553,132 C1613.3587,132 1613.71149,131.792038 1613.88789,131.425367 C1614.14211,130.905461 1613.95015,130.265155 1613.45208,129.996993 L1604.46622,125.120821 C1603.97334,124.847186 1603.36633,125.055148 1603.11211,125.575055 C1602.85789,126.094961 1603.04985,126.735266 1603.54792,127.003428 L1612.53897,131.885073 Z M1622.14248,118.370618 C1622.29189,118.762692 1622.65547,119 1623.03896,119 C1623.15849,119 1623.27802,118.979365 1623.39257,118.927776 C1623.88564,118.721421 1624.12968,118.143628 1623.93046,117.627741 L1620.8625,109.631494 C1620.66826,109.120766 1620.10547,108.867981 1619.60743,109.069177 C1619.11436,109.275532 1618.87032,109.853325 1619.06954,110.369212 L1622.14248,118.370618 Z M1593.39125,151.129649 C1590.96874,151.600246 1588.43822,152 1585.9077,152 C1584.59101,152 1583.27432,151.893736 1581.96791,151.630607 C1576.71142,150.56797 1572.39617,147.187771 1568.58496,144.202265 L1563.37476,140.118702 C1563.01987,139.840392 1562.90158,139.359675 1563.08674,138.954861 C1563.2719,138.544986 1563.71422,138.307158 1564.16169,138.388121 C1566.91337,138.828356 1569.98394,137.538011 1572.95165,136.283087 C1574.56665,135.599963 1576.23309,134.896598 1577.85324,134.476603 C1579.63284,134.011067 1581.54616,133.894683 1583.51091,134.09203 C1583.65492,134.081909 1583.79379,134.10215 1583.92752,134.147691 C1586.85407,134.506964 1589.87835,135.549361 1592.7329,137.269821 C1597.12531,139.921355 1601.38913,143.326855 1604.7323,146.858859 C1604.96889,147.106808 1605.05633,147.45596 1604.96375,147.784872 C1604.87631,148.108723 1604.61914,148.371852 1604.28997,148.467996 C1600.71021,149.520513 1597.04816,150.421224 1593.39125,151.129649 Z M1601.9175,147.5675 C1600.7575,146.4075 1599.5025,145.2675 1598.1875,144.1775 C1598.1925,145.7875 1597.7625,147.4375 1597.0825,148.8225 C1598.7025,148.4425 1600.3175,148.0275 1601.9175,147.5675 Z M1570.01747,142.783505 C1572.89446,145.056701 1576.07841,147.546392 1579.64214,149 C1578.49758,146.809278 1577.7016,143.860825 1578.30509,140.891753 C1578.68488,139.015464 1579.60572,137.360825 1581,136 C1580.19361,136.061856 1579.40282,136.164948 1578.64846,136.365979 C1577.15533,136.757732 1575.61018,137.417526 1573.97139,138.113402 C1571.68748,139.082474 1569.35154,140.07732 1567,140.402062 L1570.01747,142.783505 Z M1592.80755,149.165542 C1593.26205,149.074079 1593.71655,148.95721 1594.17105,148.860666 C1595.56451,147.194013 1596.4835,144.058877 1595.72933,141.762148 C1594.36084,140.72049 1592.95239,139.739807 1591.52397,138.850586 C1589.02173,137.29064 1586.38963,136.335363 1583.85743,136 C1581.82467,137.265233 1580.57605,138.982699 1580.15651,141.116828 C1579.55717,144.155421 1580.77083,147.46332 1582.23921,149.394199 C1582.29415,149.465336 1582.32412,149.551718 1582.35409,149.633018 C1582.39904,149.64318 1582.43899,149.658424 1582.47895,149.668587 C1585.84524,150.3698 1589.43128,149.841349 1592.80755,149.165542 Z M1587.34543,131.367977 C1592.50161,132.619347 1596.18751,136.539967 1600.09293,140.68765 C1602.07372,142.791767 1604.12087,144.971571 1606.38755,146.783029 C1606.57133,146.929358 1606.79086,147 1607.01038,147 C1607.29626,147 1607.58215,146.873854 1607.78125,146.636699 C1608.12329,146.217894 1608.05693,145.602301 1607.6332,145.26423 C1605.47373,143.538551 1603.47763,141.414251 1601.54279,139.355547 C1597.61694,135.177589 1593.55326,130.858347 1587.8202,129.465694 C1582.07183,128.073042 1576.45109,130.06615 1571.01413,131.993662 C1567.6958,133.169343 1564.27026,134.385392 1560.86514,134.804197 C1560.32399,134.869793 1559.94111,135.359239 1560.00747,135.894099 C1560.07384,136.428958 1560.56904,136.802351 1561.11018,136.741801 C1564.72972,136.29272 1568.26246,135.041351 1571.67779,133.830349 C1577.07902,131.92302 1582.17393,130.111562 1587.34543,131.367977 Z M1581.1082,153.916259 C1575.78921,153.340134 1570.65469,150.976406 1566.64752,147.261208 C1566.23757,146.87892 1565.61241,146.921995 1565.24859,147.352742 C1564.88477,147.78349 1564.92576,148.445764 1565.3357,148.828053 C1569.65034,152.834005 1575.17942,155.375416 1580.90835,155.994616 C1580.94422,156 1580.97497,156 1581.01084,156 C1581.51302,156 1581.94346,155.601558 1581.9947,155.063124 C1582.05107,154.486999 1581.65137,153.975486 1581.1082,153.916259 Z M1633.55773,215.17765 L1624.19645,208.920058 C1623.59184,208.519654 1622.67486,207.903648 1621.60673,207.960115 C1620.63432,208.011449 1619.91384,208.550454 1619.279,209.022725 C1619.02205,209.217794 1618.78021,209.397462 1618.5434,209.53093 C1617.03693,210.367671 1615.06189,209.54633 1614.01895,208.981658 C1613.52015,208.709589 1613.03143,208.411853 1612.54775,208.108983 C1611.36877,207.385176 1610.15453,206.630569 1608.73875,206.260966 C1605.68046,205.460158 1602.59698,206.66137 1599.87122,207.718846 L1599.38754,207.908781 C1596.92882,208.858457 1593.80503,209.782466 1591.437,208.48372 C1590.95836,208.221918 1590.36887,208.401586 1590.11695,208.889257 C1589.85999,209.371795 1590.04138,209.977534 1590.51498,210.234203 C1593.57831,211.912819 1597.23616,210.865609 1600.08284,209.767065 L1600.57156,209.57713 C1603.14112,208.581254 1605.80138,207.549445 1608.25506,208.185984 C1609.39373,208.48372 1610.43668,209.125393 1611.54008,209.808133 C1612.05903,210.126402 1612.57798,210.444672 1613.10701,210.732141 C1615.51031,212.030887 1617.77253,212.225955 1619.48054,211.271146 C1619.83322,211.076078 1620.14057,210.845076 1620.43783,210.62434 C1620.91143,210.270137 1621.32458,209.962134 1621.71253,209.9416 C1622.12568,209.921067 1622.59929,210.21367 1623.13839,210.57814 L1632.49967,216.835732 C1632.66594,216.948666 1632.85236,217 1633.03374,217 C1633.35116,217 1633.66354,216.840865 1633.84996,216.553396 C1634.1321,216.096525 1634.00614,215.480519 1633.55773,215.17765 Z M1628.57485,220.446651 C1625.50642,222.084683 1621.58145,222.413317 1616.22052,221.489035 C1615.06167,221.288774 1613.90282,221.052569 1612.74901,220.816364 C1609.5647,220.164232 1606.26954,219.50183 1602.93407,219.589123 L1602.53099,219.604528 C1601.60391,219.640472 1600.72722,219.671282 1600.04198,219.337513 C1598.69167,218.690516 1598.23317,216.795739 1597.94094,214.844478 C1597.86033,214.300179 1597.35144,213.925332 1596.82744,214.012625 C1596.29336,214.094783 1595.93059,214.603138 1596.01121,215.147437 C1596.24801,216.703311 1596.73675,219.948566 1599.2056,221.139862 C1600.32414,221.679026 1601.53337,221.632812 1602.59649,221.596868 L1602.98445,221.586598 C1606.10327,221.49417 1609.28758,222.146302 1612.36105,222.777894 C1613.53501,223.019235 1614.71402,223.25544 1615.89302,223.460836 C1617.50029,223.73812 1619.44514,224 1621.50588,224 C1624.12084,224 1626.93231,223.573804 1629.47674,222.218191 C1629.95539,221.961446 1630.13678,221.365798 1629.88989,220.877982 C1629.64301,220.379897 1629.05351,220.189906 1628.57485,220.446651 Z M1617.90749,194.078952 C1617.41749,193.868698 1616.84749,194.093621 1616.63749,194.572804 C1615.45749,197.247429 1614.74249,200.078521 1614.50749,202.978068 C1614.46749,203.501258 1614.86249,203.955993 1615.39749,203.99511 C1615.42249,203.99511 1615.44749,204 1615.47249,204 C1615.97249,204 1616.39749,203.623499 1616.43749,203.129647 C1616.65749,200.430574 1617.32249,197.804846 1618.41749,195.325806 C1618.62749,194.841733 1618.39749,194.284316 1617.90749,194.078952 Z M1620.075,202.99051 C1620.12,202.995255 1620.16,203 1620.205,203 C1620.685,203 1621.1,202.663107 1621.165,202.202845 L1621.755,198.041509 C1621.825,197.538542 1621.455,197.073535 1620.925,197.007106 C1620.395,196.945421 1619.905,197.291804 1619.835,197.79477 L1619.245,201.956107 C1619.175,202.463819 1619.545,202.924081 1620.075,202.99051 Z M1648.85557,161.985506 C1648.91108,161.995169 1648.96659,162 1649.0221,162 C1649.4914,162 1649.90519,161.676303 1649.98593,161.222161 C1650.07676,160.710044 1649.71848,160.226914 1649.18357,160.139951 C1646.18611,159.65199 1643.42582,157.893397 1641.80093,155.434267 C1641.5133,154.99945 1640.90775,154.869005 1640.45359,155.144389 C1639.99943,155.419773 1639.86318,155.999529 1640.15081,156.434346 C1642.06838,159.337955 1645.31816,161.410582 1648.85557,161.985506 Z M1514.04397,199.438386 C1514.01145,199.170697 1513.76212,198.968668 1513.46943,199.004023 C1513.18217,199.029277 1512.97078,199.271712 1513.0033,199.539401 C1513.87594,207.302374 1516.23369,214.767354 1520.00067,221.732311 C1520.09282,221.904036 1520.2771,222 1520.47222,222 C1520.55353,222 1520.63483,221.984848 1520.71071,221.949493 C1520.97087,221.828275 1521.07386,221.535333 1520.94377,221.292898 C1517.22015,214.434005 1514.90576,207.080142 1514.04397,199.438386 Z" id="Shape" transform="translate(1574.5, 241) scale(-1, 1) translate(-1574.5, -241)"></path>
        </g>
    </g>
</svg>