<?xml version="1.0" encoding="UTF-8"?>
<svg width="341px" height="452px" viewBox="0 0 341 452" version="1.1" xmlns="http://www.w3.org/2000/svg" xmlns:xlink="http://www.w3.org/1999/xlink">
    <title>Shape</title>
    <g id="Page-1" stroke="none" stroke-width="1" fill="none" fill-rule="evenodd" fill-opacity="0.5">
        <g id="Home" transform="translate(-1349, -984)" fill="#314AC4" fill-rule="nonzero">
            <path d="M1658.52839,1129.7451 C1659.07139,1130.18301 1659.15542,1130.98039 1658.72878,1131.52288 C1658.48314,1131.8366 1658.11467,1132 1657.74621,1132 C1657.47471,1132 1657.19675,1131.9085 1656.96403,1131.72549 C1652.06412,1127.77124 1649.08409,1121.62745 1649,1115.28105 C1648.99359,1114.5817 1649.54305,1114.00654 1650.23473,1114 C1650.89409,1114 1651.49526,1114.54902 1651.50173,1115.24837 C1651.5793,1120.84314 1654.20379,1126.26144 1658.52839,1129.7451 Z M1667.97811,1010.56507 C1672.69524,1011.65125 1676.54122,1016.25742 1677.33494,1021.76874 C1678.05122,1026.75709 1676.43152,1032.26841 1672.88883,1036.8947 C1672.45648,1037.4579 1672.54682,1038.27588 1673.08887,1038.7184 C1673.32118,1038.90613 1673.5922,1039 1673.86323,1039 C1674.23105,1039 1674.59242,1038.83238 1674.84408,1038.51055 C1678.81912,1033.32106 1680.62596,1027.07892 1679.80643,1021.38657 C1678.86429,1014.83601 1674.2246,1009.34481 1668.52016,1008.03067 C1667.84905,1007.87646 1667.17794,1008.31898 1667.02952,1009.01627 C1666.8811,1009.72027 1667.307,1010.41086 1667.97811,1010.56507 Z M1666.49729,1046 C1666.69839,1046 1666.89948,1045.95294 1667.09387,1045.8521 C1667.73067,1045.52269 1667.97868,1044.73613 1667.65693,1044.09747 C1665.51193,1039.92265 1666.78553,1034.2016 1670.49236,1031.33771 C1671.06212,1030.90073 1671.16937,1030.08056 1670.72697,1029.50913 C1670.29126,1028.93769 1669.47348,1028.83013 1668.90372,1029.27383 C1664.17131,1032.931 1662.60948,1039.96298 1665.34435,1045.28739 C1665.57226,1045.74454 1666.02807,1046 1666.49729,1046 Z M1375.75345,1086 C1376.36719,1086 1376.89694,1085.53242 1376.98738,1084.87509 C1377.08429,1084.15678 1376.61268,1083.49268 1375.92788,1083.38425 C1373.62799,1083.03187 1370.7725,1082.59139 1368.93775,1080.87693 C1368.03976,1080.03663 1367.46478,1078.62033 1367.50355,1077.34634 C1367.52293,1076.74323 1367.6909,1075.90294 1368.3757,1075.34726 C1368.91837,1074.90001 1369.02173,1074.08004 1368.59535,1073.50404 C1368.16896,1072.93481 1367.3808,1072.83316 1366.83813,1073.27363 C1365.70756,1074.19525 1365.05506,1075.61155 1365.00338,1077.25825 C1364.93877,1079.3251 1365.80447,1081.45971 1367.27097,1082.83535 C1369.66131,1085.07839 1372.93672,1085.57308 1375.5661,1085.97967 C1375.6307,1085.99322 1375.69531,1086 1375.75345,1086 Z M1683.33612,1268.05645 C1683.53588,1268.38272 1683.57583,1268.78224 1683.45597,1269.1418 C1681.9844,1273.44993 1680.33303,1277.98444 1678.58845,1282.77865 C1673.91403,1295.61645 1669.08645,1308.88041 1666.63604,1320.63286 C1668.0144,1325.72004 1665.75709,1331.74609 1660.52334,1336.83327 C1658.92524,1338.39139 1657.174,1339.80967 1655.48268,1341.18134 C1652.706,1343.43861 1650.08912,1345.56271 1648.03823,1348.25945 C1646.61993,1350.13052 1645.38806,1352.37447 1644.20281,1354.54518 C1641.42612,1359.60573 1638.56287,1364.8394 1632.85635,1366.44412 C1631.77764,1366.74376 1630.69226,1366.87693 1629.64684,1367.00345 C1628.86777,1367.09667 1628.13531,1367.18989 1627.41617,1367.34304 C1623.41428,1368.20866 1620.02499,1371.15842 1617.16174,1373.86182 C1610.92918,1379.74137 1605.13609,1386.18691 1599.94229,1393.01199 C1598.93682,1394.3304 1597.95133,1395.66878 1596.96584,1397.00716 C1593.62982,1401.53502 1590.17394,1406.21602 1585.97895,1410.17124 C1578.43462,1417.28264 1562.75999,1427.32383 1551.36691,1427.59017 C1534.7534,1432.70399 1516.48187,1435.45399 1495.52021,1436 C1495.44697,1436 1495.37372,1436 1495.29382,1436 C1491.87789,1436 1488.52856,1433.9891 1485.57208,1432.21125 C1484.6332,1431.64527 1483.75425,1431.11924 1482.92191,1430.67977 C1478.50052,1428.35591 1474.07247,1426.05203 1469.6311,1423.76147 C1460.55527,1419.08046 1451.3396,1414.40612 1442.23712,1409.86494 C1424.49829,1401.0223 1406.32664,1392.27954 1388.23489,1383.86972 C1387.04298,1383.31705 1385.69792,1382.69114 1384.6525,1381.58581 C1383.45393,1380.32733 1382.88794,1378.69597 1382.43514,1377.38423 C1374.87084,1355.51734 1369.51722,1332.78483 1366.51414,1309.81927 C1366.04137,1306.23694 1363.18478,1303.40037 1359.57575,1302.94759 C1359.09632,1302.88766 1358.6968,1302.56804 1358.53033,1302.11526 C1358.36386,1301.66247 1358.45709,1301.15642 1358.78336,1300.80351 C1374.20496,1283.67756 1388.66771,1263.62181 1400.63343,1242.79367 C1393.77495,1207.45641 1390.14594,1173.56407 1389.46009,1138.39993 C1389.04725,1136.74859 1387.37591,1134.13842 1381.94906,1130.72921 C1378.95929,1128.85148 1375.03064,1125.60207 1373.2794,1120.79456 C1371.70794,1116.50641 1372.2473,1112.81088 1374.83088,1109.78121 C1374.39807,1109.66135 1373.96525,1109.52818 1373.52577,1109.41498 C1371.40164,1108.849 1369.1976,1108.26304 1367.28655,1106.93132 C1364.62306,1105.08023 1362.90511,1102.13712 1362.69203,1099.06084 C1362.53888,1096.85684 1363.17812,1094.79267 1364.47657,1093.10804 C1363.33793,1092.8084 1362.20595,1092.46215 1361.1006,1092.01603 C1356.91892,1090.31808 1352.35104,1086.59592 1352.04474,1081.22907 C1351.91156,1078.85195 1352.664,1076.65461 1353.3898,1074.53717 C1353.64949,1073.77809 1353.91584,1073.019 1354.12892,1072.2466 C1354.79479,1069.8828 1354.86804,1066.83981 1353.07018,1065.38157 C1352.76388,1065.12855 1352.38433,1064.90881 1351.97815,1064.68242 C1351.46543,1064.38944 1350.88612,1064.05651 1350.3734,1063.59707 C1349.1149,1062.47842 1348.46234,1060.46752 1349.55438,1059.02926 C1349.83404,1058.66303 1350.28018,1058.46327 1350.73963,1058.52986 C1359.07635,1059.54197 1367.8592,1062.55166 1375.60995,1065.20179 L1375.94289,1065.31499 C1379.25227,1060.74052 1383.68032,1057.26472 1387.9752,1053.90212 C1390.72525,1051.74473 1393.84819,1049.29436 1397.61703,1048.31555 C1401.6056,1047.2768 1405.62747,1048.04254 1409.51616,1048.78165 C1412.69237,1049.38758 1415.6888,1049.96023 1418.66525,1049.62064 C1425.88996,1048.80828 1431.32348,1042.92207 1436.57055,1037.22896 C1437.43618,1036.29009 1438.30182,1035.35123 1439.16079,1034.44566 C1447.95031,1025.23013 1458.89059,1017.96559 1470.80304,1013.44439 C1473.30006,1012.49887 1475.49744,1012.09269 1477.52169,1012.19257 C1478.82014,1012.25916 1479.95878,1012.55879 1480.91098,1013.07817 C1481.56353,1013.43107 1481.99635,1013.91715 1482.3759,1014.33664 C1482.58232,1014.56304 1482.77542,1014.77611 1482.96852,1014.92926 C1483.51454,1015.35541 1484.24034,1015.66837 1485.07268,1015.81486 C1486.80395,1016.13447 1489.0213,1016.04791 1491.15875,1015.5818 C1492.24412,1015.34875 1493.2962,1014.95589 1494.41487,1014.5364 C1494.80773,1014.38991 1495.20059,1014.24342 1495.59346,1014.10359 C1497.3447,1013.48434 1499.09595,1012.81182 1500.8139,1012.08603 C1503.8303,1010.8209 1507.0398,1009.28941 1510.61554,1007.41834 C1513.8317,1005.72706 1517.06784,1003.91591 1520.19744,1002.1647 L1549.12958,986.057512 C1549.74218,985.724581 1550.50794,985.924339 1550.86751,986.523615 C1552.55216,989.366842 1554.41661,992.143484 1556.40756,994.793612 C1558.15215,997.117469 1561.3217,997.730061 1563.78543,996.225214 L1564.97068,995.499425 C1565.31693,995.28635 1565.74975,995.253057 1566.12264,995.406205 C1566.50219,995.559353 1566.78185,995.878966 1566.88839,996.278483 C1567.6941,999.361421 1571.05675,1001.14593 1573.83344,1001.50549 C1577.08955,1001.92499 1580.42557,1001.01942 1583.84816,999.974014 C1584.92687,999.641083 1585.99892,999.308152 1587.07098,998.968563 C1591.08619,997.710085 1595.24123,996.411656 1599.4562,995.519401 C1604.86974,994.380778 1610.56961,993.854748 1616.08303,993.355352 C1628.15529,992.250022 1639.55502,991.211278 1648.53764,984.253027 C1648.58425,984.219734 1648.63086,984.186441 1648.67747,984.159807 C1648.70411,984.139831 1648.74406,984.146489 1648.77069,984.133172 C1648.87723,984.079903 1648.98377,984.053269 1649.10363,984.033293 C1649.1569,984.019976 1649.21683,984 1649.28341,984 C1649.39661,984 1649.50981,984.019976 1649.62301,984.053269 C1649.67628,984.066586 1649.73621,984.059928 1649.78948,984.079903 C1649.8028,984.086562 1649.81611,984.099879 1649.82943,984.106538 C1649.84275,984.113196 1649.85606,984.113196 1649.86938,984.113196 C1654.25748,986.190684 1659.03178,990.825079 1661.48885,995.386229 L1661.59539,995.579329 C1661.92167,996.191921 1662.22797,996.771221 1662.64081,997.030907 C1663.29337,997.437082 1664.17232,997.144103 1665.55067,996.624731 C1666.59609,996.231873 1667.78134,995.825698 1669.01321,995.819039 C1670.97087,995.865649 1672.56231,997.070858 1673.72092,997.956454 C1680.93898,1003.44315 1688.11042,1009.51581 1689.68188,1018.06547 C1691.51303,1028.03341 1685.10734,1037.23561 1678.96134,1045.08612 C1676.37109,1048.38879 1673.83412,1051.798 1671.88312,1055.30043 C1674.93947,1061.32648 1675.53875,1068.68425 1673.44792,1075.10315 C1672.38918,1078.36587 1670.77111,1081.3689 1669.21297,1084.27206 C1666.01012,1090.23152 1662.99372,1095.86471 1665.1112,1102.92284 C1666.17659,1106.46522 1668.24745,1109.55482 1670.43817,1112.82419 C1671.12402,1113.84962 1671.80987,1114.86839 1672.46243,1115.90713 C1676.11806,1121.71344 1679.40081,1129.85027 1674.2736,1135.6366 C1670.89763,1139.45199 1665.47077,1140.81035 1660.66983,1142.00224 C1662.18136,1142.54159 1663.74616,1143.10757 1665.1112,1144.15297 C1670.08526,1147.97502 1669.37278,1155.43266 1666.61607,1160.74624 C1662.76067,1168.17059 1653.95784,1176.38066 1643.74336,1176.8734 C1643.47701,1176.88672 1643.21732,1176.89337 1642.95763,1176.89337 C1635.75955,1176.89337 1632.33031,1171.90607 1629.00761,1167.07858 C1628.74126,1166.68572 1628.46159,1166.29286 1628.18858,1165.9 C1628.18193,1166.15303 1628.16195,1166.41272 1628.15529,1166.66574 C1627.75577,1178.93757 1628.30178,1191.42913 1629.78002,1203.78751 C1630.05303,1206.07808 1630.36599,1208.40193 1630.69892,1210.6925 C1630.86539,1211.8178 1631.03852,1212.93645 1631.2183,1214.0551 C1631.25826,1214.30146 1631.28489,1214.53452 1631.31818,1214.76757 C1631.43138,1215.6465 1631.50463,1216.12592 1631.87086,1216.59869 C1632.51675,1217.43767 1633.26253,1218.26334 1633.98833,1219.05571 C1634.28131,1219.37533 1634.56764,1219.69494 1634.85396,1220.01455 C1636.81829,1222.22521 1638.82256,1224.42256 1640.82684,1226.53334 C1644.59567,1230.50853 1648.61088,1234.47706 1652.75261,1238.32574 C1656.30171,1241.62176 1660.09718,1244.98436 1664.36542,1248.59998 L1666.26981,1250.20471 C1672.52235,1255.47167 1678.99463,1260.92508 1683.33612,1268.05645 Z M1628.6,1138 C1627.207,1140.98129 1625.807,1143.94304 1624.4,1146.88527 L1626.605,1154 C1627.095,1148.7795 1627.767,1143.37673 1628.6,1138 Z M1621.393,1153.03986 L1621.106,1153.63933 C1621.05,1153.76313 1620.987,1153.88041 1620.931,1154.00422 L1625.593,1166 C1625.642,1164.72288 1625.698,1163.42622 1625.775,1162.09697 C1625.775,1162.09697 1625.775,1162.09697 1625.775,1162.09046 C1625.859,1160.70908 1625.957,1159.30165 1626.069,1157.87466 L1623.318,1149 C1622.681,1150.34879 1622.037,1151.69759 1621.393,1153.03986 Z M1618,1160.73128 L1624.96182,1177 C1624.94273,1174.66079 1624.95545,1172.32159 1625,1169.99559 L1620.11909,1156 C1619.43818,1157.5793 1618.73818,1159.15859 1618,1160.73128 Z M1615,1166.01722 L1626,1190 C1625.7949,1186.75945 1625.66501,1183.52559 1625.58981,1180.29842 L1617.28341,1162 C1616.56557,1163.35916 1615.80671,1164.69823 1615,1166.01722 Z M1611,1171.11299 L1627,1205 C1626.96654,1204.71911 1626.9197,1204.43823 1626.88624,1204.15734 C1626.45797,1200.566 1626.11669,1196.96797 1625.84233,1193.36325 L1613.99122,1167 C1613.07445,1168.41781 1612.08407,1169.79549 1611,1171.11299 Z M1651.78062,988 C1652.40607,989.653814 1652.87849,991.134244 1652.88514,991.167587 C1656.17877,1001.91071 1656.75764,1013.68747 1656.91068,1021.60977 C1657.21676,1037.63442 1653.92979,1053.21895 1651.02874,1066.96962 C1647.50889,1083.6678 1643.06416,1099.05894 1637.43506,1114.01662 C1635.745,1118.50459 1633.95513,1122.9859 1632.10538,1127.43385 C1630.05602,1138.64378 1628.60549,1150.7673 1628,1161.47708 C1628.97811,1162.71744 1629.88967,1164.01782 1630.76132,1165.28485 C1634.0749,1170.11292 1636.96264,1174.32081 1643.23051,1173.98072 C1652.00684,1173.55392 1660.28415,1166.2318 1663.92377,1159.21642 C1666.27921,1154.68177 1666.76493,1148.63335 1663.13862,1145.8392 C1662.08067,1145.02563 1660.75657,1144.55216 1659.35927,1144.05202 C1658.67393,1143.80528 1657.99525,1143.56521 1657.32987,1143.27846 C1649.24552,1139.80412 1645.19337,1131.22829 1641.72675,1122.74583 C1641.4606,1122.08563 1641.77333,1121.33208 1642.43205,1121.05867 C1643.09078,1120.79192 1643.84265,1121.10535 1644.11546,1121.76554 C1647.08305,1129.04099 1650.49644,1136.35645 1656.5048,1139.94416 C1657.48956,1139.67074 1658.51424,1139.41067 1659.57219,1139.14392 C1664.24315,1137.98359 1669.07379,1136.78324 1671.92827,1133.5423 C1675.99373,1128.94096 1673.05276,1121.93892 1669.86559,1116.87078 C1669.22683,1115.85049 1668.5548,1114.8502 1667.88277,1113.84324 C1665.68037,1110.55562 1663.40477,1107.15463 1662.23371,1103.23349 C1659.81173,1095.14447 1663.22512,1088.76262 1666.53205,1082.59416 C1668.0358,1079.78667 1669.59279,1076.87916 1670.5842,1073.83161 C1672.26096,1068.66344 1672.02142,1062.81508 1669.99867,1057.74694 C1668.30196,1061.56805 1667.45027,1065.49585 1668.12896,1069.53036 C1668.24873,1070.23723 1667.77631,1070.89742 1667.07101,1071.01746 C1666.99781,1071.0308 1666.92462,1071.03747 1666.85808,1071.03747 C1666.23928,1071.03747 1665.69367,1070.59067 1665.58721,1069.95715 C1663.93042,1060.07428 1670.07852,1051.20503 1676.51938,1042.96931 C1682.31482,1035.55382 1688.36976,1026.89797 1686.72628,1017.97538 C1685.32233,1010.31982 1678.84155,1004.83156 1671.74861,999.429988 C1670.61082,998.56307 1669.57948,997.84286 1668.54149,997.816186 C1667.80292,997.742831 1666.94458,998.116273 1666.04632,998.456372 C1664.52261,999.029872 1662.62628,999.743413 1660.86303,998.629756 C1659.87827,998.009576 1659.34597,997.009285 1658.92012,996.209052 L1658.82032,996.022331 C1657.26999,993.141494 1654.58851,990.153959 1651.78062,988 Z M1362.3467,1089.60583 C1364.81307,1090.61332 1367.41979,1091.11706 1370.17357,1091.65438 C1371.84455,1091.97678 1373.57568,1092.31932 1375.26003,1092.77605 C1378.00043,1093.52159 1380.79431,1094.28728 1383,1096 C1381.67658,1085.68336 1379.7583,1077.07945 1375.80811,1067.66955 L1375.1063,1067.42775 C1367.51337,1064.81501 1359.67313,1062.12167 1352,1061 C1352.08021,1061.14105 1352.19383,1061.2821 1352.32751,1061.40299 C1352.64834,1061.69181 1353.06943,1061.9336 1353.51725,1062.18883 C1353.99181,1062.46421 1354.48642,1062.74631 1354.95429,1063.13587 C1357.31371,1065.06352 1358.02889,1068.67031 1356.87257,1072.78756 C1356.64532,1073.60699 1356.3646,1074.41969 1356.08387,1075.23239 C1355.40211,1077.2205 1354.76046,1079.10113 1354.8674,1080.9952 C1355.10802,1085.19305 1359.04485,1088.26252 1362.3467,1089.60583 Z M1390.07901,1133.29376 C1390.01919,1127.80757 1390.01919,1122.29473 1390.09231,1116.73522 C1390.09231,1116.72188 1390.09896,1116.70855 1390.09896,1116.69522 C1390.1056,1116.59523 1390.13219,1116.49524 1390.16543,1116.40191 C1390.18537,1116.34192 1390.19202,1116.27526 1390.21861,1116.21526 C1390.27179,1116.10194 1390.34491,1116.00861 1390.43132,1115.91529 C1390.45791,1115.88862 1390.47121,1115.85529 1390.49779,1115.82863 C1390.59086,1115.74197 1390.70386,1115.67531 1390.82351,1115.61532 C1390.85675,1115.59532 1390.88334,1115.57532 1390.91657,1115.56199 C1390.93652,1115.55532 1390.94981,1115.53532 1390.96975,1115.52866 C1391.05617,1115.50199 1391.14258,1115.50866 1391.229,1115.49533 C1391.28882,1115.48866 1391.342,1115.462 1391.40183,1115.462 C1391.41512,1115.462 1391.42842,1115.46866 1391.44171,1115.46866 C1391.53477,1115.47533 1391.61454,1115.50199 1391.70096,1115.52199 C1391.78072,1115.54199 1391.85384,1115.54865 1391.92697,1115.58199 C1392.00009,1115.61532 1392.05326,1115.66864 1392.11974,1115.71531 C1392.18621,1115.76864 1392.26598,1115.80863 1392.31916,1115.86863 C1392.36569,1115.92196 1392.39892,1115.98862 1392.43216,1116.04861 C1392.48534,1116.1286 1392.54516,1116.2086 1392.5784,1116.30192 C1392.58505,1116.31525 1392.5917,1116.32192 1392.59834,1116.33525 L1393.13677,1117.93511 C1400.78782,1140.77976 1408.69812,1164.39768 1428.94581,1176.78992 C1434.25701,1180.0363 1440.08005,1182.2961 1445.59066,1184.32925 C1459.52342,1189.4688 1473.88824,1193.94174 1488.27966,1197.63474 C1491.04494,1198.34135 1493.90328,1199.16128 1496.66191,1199.95454 C1505.75543,1202.56764 1515.15472,1205.25407 1524.39447,1204.98076 C1530.4967,1204.78745 1536.50586,1203.27425 1542.30896,1201.80771 C1544.48263,1201.26109 1546.73607,1200.69447 1548.97621,1200.19452 C1552.43945,1199.42792 1555.98911,1198.88797 1559.41912,1198.36135 C1564.52426,1197.58141 1569.80886,1196.78149 1574.78769,1195.22162 C1588.42797,1190.962 1602.10812,1178.73641 1609.6794,1169.56389 C1613.87385,1164.48434 1616.61919,1158.29822 1619.27811,1152.31208 L1619.55065,1151.6988 C1625.08786,1139.2399 1630.80454,1126.35437 1635.68366,1113.38885 C1641.26075,1098.55682 1645.66791,1083.29817 1649.15775,1066.73296 C1652.02939,1053.12083 1655.27992,1037.69553 1654.98079,1021.97025 C1654.83455,1014.20427 1654.26953,1002.67862 1651.07882,992.25287 C1650.93923,991.819575 1649.79589,988.799841 1649.07134,987 C1639.71858,993.566087 1627.99273,994.639326 1616.63913,995.679234 C1611.20828,996.17919 1605.59131,996.692478 1600.33329,997.805713 C1596.2452,998.672303 1592.16375,999.95219 1588.2086,1001.19208 C1587.13174,1001.53205 1586.05488,1001.87202 1584.97137,1002.19866 C1581.27547,1003.33189 1577.65268,1004.31181 1573.89696,1003.82518 C1570.65972,1003.41188 1567.02364,1001.54538 1565.39505,998.272338 C1564.03235,999.072268 1562.53671,999.42557 1561.06101,999.385574 L1555.97582,1034.03585 C1555.88276,1034.67579 1555.33103,1035.14242 1554.70618,1035.14242 C1554.64636,1035.14242 1554.57989,1035.13575 1554.52006,1035.12909 C1553.81545,1035.02243 1553.33019,1034.36915 1553.43655,1033.66255 L1558.54168,998.892284 C1557.09257,998.365664 1555.7764,997.439079 1554.77931,996.105863 C1552.99118,993.719407 1551.29612,991.219628 1549.74065,988.673186 L1521.94826,1004.19182 C1518.81073,1005.95166 1515.56685,1007.77817 1512.32296,1009.48468 C1508.68689,1011.39785 1505.42306,1012.95771 1502.33871,1014.25093 C1500.58382,1014.99086 1498.7824,1015.6908 1496.98763,1016.32408 C1496.60873,1016.4574 1496.22984,1016.60405 1495.85094,1016.74404 C1495.58505,1016.84403 1495.30586,1016.93736 1495.03332,1017.03735 C1492.94607,1021.27697 1491.15794,1025.70992 1489.72877,1030.20952 C1489.55594,1030.75614 1489.05075,1031.10944 1488.50567,1031.10944 C1488.37272,1031.10944 1488.24642,1031.08944 1488.11348,1031.04945 C1487.43545,1030.82947 1487.0632,1030.10953 1487.27592,1029.42959 C1488.51232,1025.5366 1490.02125,1021.7036 1491.74291,1017.98393 C1489.44959,1018.43056 1487.08314,1018.49722 1485.16872,1018.14392 C1483.92567,1017.91727 1482.80893,1017.43731 1481.93813,1016.74404 C1481.57253,1016.45073 1481.28005,1016.13076 1481.02745,1015.85079 C1480.74826,1015.53748 1480.50896,1015.27084 1480.24307,1015.13085 C1479.63152,1014.79755 1478.86708,1014.60423 1477.95639,1014.55757 C1476.30786,1014.47091 1474.45326,1014.82421 1472.29954,1015.64414 C1460.76646,1020.03708 1450.1773,1027.0898 1441.66211,1036.03567 C1440.81125,1036.92893 1439.9604,1037.85551 1439.10289,1038.78876 C1433.5391,1044.8349 1427.78918,1051.08768 1419.61964,1052.01426 C1416.2561,1052.38756 1412.93245,1051.75429 1409.70851,1051.14101 C1405.94613,1050.42774 1402.38318,1049.7478 1398.95981,1050.63438 C1395.71593,1051.48098 1392.82435,1053.75411 1390.27843,1055.7606 C1386.07734,1059.06697 1381.74994,1062.48667 1378.64565,1066.86628 C1383.57795,1078.63858 1385.37937,1089.12432 1386.7753,1103.12975 C1386.84842,1103.83636 1386.32993,1104.46963 1385.62532,1104.54296 C1385.58544,1104.54296 1385.5389,1104.54296 1385.49902,1104.54296 C1384.84758,1104.54296 1384.28256,1104.043 1384.21609,1103.38306 C1384.12303,1102.42981 1384.02332,1101.4899 1383.92361,1100.56998 C1382.38143,1097.29693 1379.51645,1096.36368 1374.99628,1095.13712 C1373.40757,1094.71049 1371.73245,1094.38386 1370.11716,1094.06388 C1369.43913,1093.93056 1368.74781,1093.79724 1368.06314,1093.65725 C1368.0432,1093.67725 1368.03655,1093.70392 1368.01661,1093.72391 C1366.59408,1095.03713 1365.88282,1096.82364 1366.01577,1098.77014 C1366.1753,1101.0766 1367.47818,1103.28974 1369.49896,1104.70295 C1371.04113,1105.77618 1372.92897,1106.28281 1374.92316,1106.80943 C1375.72083,1107.02274 1376.52516,1107.23606 1377.30954,1107.48937 C1379.59621,1108.22263 1383.5713,1110.02914 1384.46204,1113.88214 C1384.62158,1114.57541 1384.1895,1115.26868 1383.49818,1115.42867 C1383.39847,1115.44866 1383.29876,1115.462 1383.2057,1115.462 C1382.62074,1115.462 1382.08895,1115.06203 1381.95601,1114.46208 C1381.51064,1112.54892 1379.68928,1111.3157 1378.1604,1110.59576 C1378.13381,1110.62909 1378.12051,1110.67575 1378.08727,1110.70242 C1375.62777,1113.13553 1375.08934,1116.11527 1376.4321,1119.80828 C1377.93439,1123.93458 1381.39763,1126.78766 1384.04326,1128.45418 C1386.61577,1130.08071 1388.6299,1131.70056 1390.07901,1133.29376 Z M1663.92477,1323 C1656.08987,1327.04788 1650.04256,1333.52449 1643.65635,1340.35281 C1637.92803,1346.47772 1632.00699,1352.80834 1624.69706,1357.17474 C1623.81323,1357.69898 1622.90946,1358.2033 1621.99904,1358.701 C1619.56683,1360.04144 1617.26088,1361.30889 1615.37359,1363.10721 C1614.65589,1363.79071 1614.01128,1364.53393 1613.32016,1365.33023 C1612.28348,1366.52469 1611.21358,1367.7656 1609.87785,1368.77425 C1607.10673,1370.87119 1603.75081,1371.5945 1600.50786,1372.2979 C1597.71015,1372.90176 1595.07194,1373.47908 1592.83909,1374.85271 C1590.69263,1376.17988 1588.97147,1378.26355 1587.45632,1380.10832 C1584.71178,1383.43953 1581.77452,1386.81719 1578.66448,1390.38729 C1568.97551,1401.52892 1558.96756,1413.03552 1553,1425 C1563.41996,1423.73918 1577.28888,1414.68785 1583.8944,1408.47668 C1587.91486,1404.69423 1591.28407,1400.12211 1594.54695,1395.70262 C1595.53711,1394.35554 1596.53392,1393.01509 1597.54402,1391.68792 C1602.81381,1384.77998 1608.68833,1378.25028 1615.00809,1372.29126 C1618.11813,1369.35821 1621.82626,1366.14644 1626.47138,1365.15106 C1627.30206,1364.9719 1628.12608,1364.87236 1628.93017,1364.77282 C1629.92034,1364.65337 1630.85734,1364.54056 1631.74117,1364.2884 C1636.39294,1362.98113 1638.87832,1358.45547 1641.50324,1353.66437 C1642.73264,1351.42144 1644.00855,1349.09889 1645.54364,1347.08158 C1647.77649,1344.14853 1650.634,1341.82597 1653.39848,1339.58305 C1655.03989,1338.24924 1656.74111,1336.87561 1658.25626,1335.40245 C1659.8578,1333.85629 1664.65577,1328.66704 1663.92477,1323 Z M1681,1268.39131 C1676.8873,1261.85683 1670.7548,1256.6812 1664.82161,1251.66544 L1662.91475,1250.05347 C1658.62931,1246.40988 1654.80895,1243.01942 1651.24107,1239.69556 C1647.06193,1235.80551 1643.02231,1231.80223 1639.22189,1227.78562 C1637.20873,1225.65409 1635.18227,1223.44263 1633.20233,1221.20452 C1632.92328,1220.89145 1632.64423,1220.57838 1632.35853,1220.26531 C1631.6011,1219.43268 1630.82374,1218.56675 1630.11282,1217.64752 C1629.30224,1216.59508 1629.16272,1215.51599 1629.04312,1214.56346 C1629.01655,1214.35697 1628.98997,1214.14382 1628.95675,1213.93067 C1628.77736,1212.79829 1628.59797,1211.66591 1628.43187,1210.53354 C1628.33885,1209.89408 1628.26576,1209.24796 1628.17275,1208.6085 L1610.81171,1171.71967 C1609.70214,1173.02524 1608.47963,1174.37076 1607.15745,1175.7496 L1624.91714,1209.12806 C1625.08324,1209.44113 1624.96365,1209.83413 1624.65137,1210.00065 C1624.55171,1210.05394 1624.45205,1210.07393 1624.35239,1210.07393 C1624.11984,1210.07393 1623.90059,1209.94737 1623.78764,1209.73421 L1606.22063,1176.71545 C1605.36355,1177.58805 1604.45995,1178.4673 1603.53642,1179.34656 L1618.00063,1207.44282 C1618.16009,1207.75588 1618.04049,1208.14889 1617.72157,1208.31541 C1617.62856,1208.36204 1617.5289,1208.38868 1617.42923,1208.38868 C1617.19669,1208.38868 1616.97079,1208.26212 1616.85784,1208.04231 L1602.55973,1180.27244 C1601.42359,1181.31823 1600.2343,1182.36401 1599.01178,1183.38981 L1611.6688,1205.60437 C1611.84819,1205.91744 1611.73524,1206.31044 1611.42961,1206.48363 C1611.32995,1206.54358 1611.217,1206.57022 1611.11069,1206.57022 C1610.88479,1206.57022 1610.67218,1206.45032 1610.55259,1206.24383 L1598.00852,1184.2291 C1596.78601,1185.22826 1595.53027,1186.20743 1594.24796,1187.15996 L1605.15093,1205.59771 C1605.33032,1205.90412 1605.23066,1206.29712 1604.92503,1206.48363 C1604.81873,1206.54358 1604.70578,1206.57688 1604.59947,1206.57688 C1604.38022,1206.57688 1604.16761,1206.46364 1604.04801,1206.26381 L1593.21148,1187.93264 C1591.98232,1188.81189 1590.73323,1189.66451 1589.45757,1190.47715 L1598.44039,1206.2838 C1598.61314,1206.5902 1598.50683,1206.98987 1598.2012,1207.16305 C1598.10154,1207.223 1597.98859,1207.24965 1597.88229,1207.24965 C1597.65639,1207.24965 1597.44378,1207.12975 1597.32418,1206.92325 L1588.37458,1191.15658 C1587.17864,1191.89595 1585.96941,1192.58204 1584.7469,1193.24148 L1592.12849,1206.27713 C1592.30124,1206.5902 1592.19494,1206.9832 1591.88931,1207.15639 C1591.78965,1207.21634 1591.6767,1207.24298 1591.57039,1207.24298 C1591.34449,1207.24298 1591.13188,1207.12309 1591.01229,1206.91659 L1583.6174,1193.8543 C1582.56763,1194.39384 1581.51122,1194.88676 1580.44816,1195.34637 L1586.4345,1206.2838 C1586.60725,1206.59686 1586.4943,1206.98987 1586.18202,1207.15639 C1586.08236,1207.20968 1585.97606,1207.23632 1585.87639,1207.23632 C1585.6505,1207.23632 1585.43124,1207.11642 1585.31165,1206.90327 L1579.25887,1195.83929 C1578.28883,1196.23229 1577.31879,1196.59865 1576.34875,1196.91838 L1581.77698,1209.16802 C1581.92315,1209.49442 1581.77698,1209.87409 1581.45142,1210.02064 C1581.36505,1210.0606 1581.27868,1210.07393 1581.1923,1210.07393 C1580.94647,1210.07393 1580.70728,1209.93404 1580.60098,1209.69425 L1575.11959,1197.31804 C1574.29573,1197.5645 1573.46521,1197.79763 1572.62806,1198.01079 L1577.71744,1211.78581 C1577.84368,1212.11886 1577.67093,1212.49188 1577.33872,1212.61178 C1577.26564,1212.63842 1577.18591,1212.65175 1577.11282,1212.65175 C1576.8537,1212.65175 1576.60787,1212.49188 1576.50821,1212.2321 L1571.36568,1198.32386 C1569.99035,1198.65025 1568.60173,1198.93667 1567.21976,1199.18979 L1572.82073,1213.51102 C1572.95362,1213.84407 1572.78751,1214.21709 1572.45531,1214.35031 C1572.37558,1214.38362 1572.29585,1214.39694 1572.22277,1214.39694 C1571.96365,1214.39694 1571.72446,1214.24373 1571.6248,1213.99062 L1565.9308,1199.42959 C1564.50232,1199.68271 1563.08048,1199.90918 1561.66529,1200.129 L1568.32932,1215.9756 C1568.46885,1216.302 1568.31603,1216.68167 1567.98383,1216.82156 C1567.9041,1216.85486 1567.81773,1216.87484 1567.73135,1216.87484 C1567.47888,1216.87484 1567.23969,1216.7283 1567.14003,1216.48184 L1560.34976,1200.33549 C1560.18365,1200.36213 1560.01091,1200.38878 1559.8448,1200.41542 C1558.64887,1200.59527 1557.43964,1200.78844 1556.23041,1200.98161 L1563.43926,1218.79322 C1563.57214,1219.12628 1563.41269,1219.49929 1563.08713,1219.63251 C1563.0074,1219.66582 1562.92767,1219.67914 1562.84794,1219.67914 C1562.59546,1219.67914 1562.35627,1219.52594 1562.24997,1219.27282 L1554.93481,1201.1881 C1553.4266,1201.44122 1551.92503,1201.72098 1550.4434,1202.03405 L1558.96114,1222.84313 C1559.09402,1223.16952 1558.94121,1223.5492 1558.609,1223.68242 C1558.52927,1223.71573 1558.44954,1223.72905 1558.36317,1223.72905 C1558.11069,1223.72905 1557.87151,1223.57585 1557.7652,1223.32939 L1549.15444,1202.30716 C1547.90535,1202.58692 1546.66291,1202.88667 1545.42046,1203.19307 L1554.07772,1226.93967 C1554.19732,1227.27272 1554.03121,1227.64574 1553.69237,1227.76564 C1553.61928,1227.79228 1553.5462,1227.80561 1553.47311,1227.80561 C1553.20735,1227.80561 1552.96151,1227.64574 1552.8685,1227.3793 L1544.16472,1203.50614 C1543.77272,1203.60606 1543.37408,1203.69931 1542.98872,1203.79923 C1542.17814,1204.00572 1541.36091,1204.20555 1540.53704,1204.41204 L1549.80557,1232.26184 C1549.91852,1232.60155 1549.73912,1232.96791 1549.40028,1233.08115 C1549.33383,1233.10113 1549.26075,1233.11445 1549.19431,1233.11445 C1548.9219,1233.11445 1548.67607,1232.94127 1548.58305,1232.67483 L1539.28131,1204.71845 C1537.7731,1205.08481 1536.25824,1205.43118 1534.72345,1205.74425 L1545.72609,1237.80382 C1545.83904,1238.14354 1545.66629,1238.50989 1545.32744,1238.62313 C1545.261,1238.64978 1545.18792,1238.65644 1545.12147,1238.65644 C1544.85571,1238.65644 1544.60323,1238.48991 1544.51022,1238.22347 L1533.44779,1205.99737 C1531.77347,1206.31044 1530.07923,1206.57022 1528.37169,1206.76339 L1541.03535,1242.33333 C1541.15495,1242.66638 1540.9822,1243.0394 1540.64335,1243.1593 C1540.57026,1243.18594 1540.49718,1243.19926 1540.42409,1243.19926 C1540.15833,1243.19926 1539.9125,1243.03274 1539.81948,1242.77296 L1527.04952,1206.90327 C1526.21236,1206.97654 1525.36856,1207.02983 1524.52476,1207.05648 C1524.03974,1207.0698 1523.54808,1207.08312 1523.06306,1207.08312 C1522.81722,1207.08312 1522.56475,1207.06314 1522.31892,1207.05648 L1534.10555,1240.2351 C1534.22515,1240.57482 1534.0524,1240.94117 1533.71355,1241.06107 C1533.64047,1241.08772 1533.56738,1241.10104 1533.4943,1241.10104 C1533.22853,1241.10104 1532.9827,1240.93451 1532.88968,1240.67473 L1520.9303,1207.01651 C1519.68121,1206.96322 1518.43212,1206.86997 1517.18303,1206.73675 L1529.10919,1239.42246 C1529.22878,1239.75551 1529.06268,1240.12853 1528.72383,1240.24842 C1528.65075,1240.27507 1528.57766,1240.28839 1528.50458,1240.28839 C1528.23881,1240.28839 1527.99298,1240.12853 1527.89996,1239.86208 L1515.75454,1206.54358 C1514.52539,1206.38371 1513.29623,1206.18388 1512.06707,1205.9574 L1522.89695,1236.33173 C1523.01655,1236.66479 1522.8438,1237.0378 1522.50495,1237.1577 C1522.43187,1237.18435 1522.35878,1237.19767 1522.2857,1237.19767 C1522.01993,1237.19767 1521.7741,1237.03114 1521.68108,1236.77136 L1510.59208,1205.67764 C1509.18353,1205.39122 1507.77498,1205.08481 1506.37307,1204.7451 L1515.45556,1231.13613 C1515.56851,1231.46918 1515.39576,1231.8422 1515.05691,1231.95543 C1514.99047,1231.98208 1514.91739,1231.98874 1514.8443,1231.98874 C1514.57854,1231.98874 1514.32606,1231.82221 1514.23305,1231.55577 L1504.87815,1204.36542 C1503.38987,1203.98574 1501.90824,1203.58607 1500.43325,1203.17975 L1508.31315,1225.82062 C1508.43274,1226.16033 1508.25335,1226.52669 1507.9145,1226.63993 C1507.84806,1226.66657 1507.77498,1226.67323 1507.70189,1226.67323 C1507.43613,1226.67323 1507.1903,1226.5067 1507.09728,1226.24026 L1498.91839,1202.74678 C1497.94171,1202.46702 1496.96502,1202.18726 1495.99499,1201.91415 C1495.5897,1201.80092 1495.17776,1201.68102 1494.76583,1201.56778 L1502.19393,1221.824 C1502.31353,1222.15705 1502.14742,1222.53007 1501.81522,1222.64996 C1501.74213,1222.67661 1501.66905,1222.68993 1501.59596,1222.68993 C1501.33684,1222.68993 1501.08437,1222.53007 1500.99135,1222.27028 L1493.23768,1201.13481 C1491.94208,1200.76846 1490.65313,1200.41542 1489.36417,1200.06905 L1496.68597,1218.78656 C1496.81885,1219.11961 1496.65275,1219.49263 1496.32055,1219.62585 C1496.24082,1219.65916 1496.16109,1219.67248 1496.088,1219.67248 C1495.82888,1219.67248 1495.5897,1219.51928 1495.49003,1219.26616 L1487.8161,1199.66272 C1487.77623,1199.6494 1487.72972,1199.63608 1487.68321,1199.62942 C1486.48063,1199.32301 1485.27805,1198.99662 1484.07547,1198.67689 L1491.38398,1215.98227 C1491.52351,1216.30866 1491.37069,1216.68834 1491.04513,1216.82822 C1490.9654,1216.86152 1490.87903,1216.88151 1490.79265,1216.88151 C1490.54018,1216.88151 1490.30099,1216.73496 1490.20133,1216.4885 L1482.50746,1198.26391 C1481.64373,1198.03077 1480.78664,1197.79097 1479.9229,1197.55118 L1485.78965,1212.42527 C1485.92253,1212.75832 1485.75642,1213.13134 1485.43086,1213.26456 C1485.35113,1213.29787 1485.27141,1213.31119 1485.19168,1213.31119 C1484.93256,1213.31119 1484.69337,1213.15799 1484.59371,1212.90487 L1478.37483,1197.12487 C1477.32506,1196.83178 1476.27529,1196.53204 1475.23217,1196.23229 L1480.56074,1209.14804 C1480.69362,1209.48109 1480.5408,1209.85411 1480.21524,1209.99399 C1480.13551,1210.0273 1480.04914,1210.04062 1479.96941,1210.04062 C1479.71694,1210.04062 1479.47775,1209.88742 1479.37809,1209.64096 L1473.65087,1195.76602 C1472.29547,1195.37302 1470.94672,1194.97335 1469.59797,1194.56037 L1474.40165,1205.51778 C1474.54782,1205.84417 1474.39501,1206.22385 1474.06945,1206.37039 C1473.98308,1206.40369 1473.8967,1206.42368 1473.81033,1206.42368 C1473.5645,1206.42368 1473.32531,1206.27713 1473.219,1206.03734 L1467.97016,1194.06745 C1467.01341,1193.77437 1466.06331,1193.48128 1465.1132,1193.18153 L1468.69437,1201.36795 C1468.8339,1201.69434 1468.68773,1202.07402 1468.36217,1202.22056 C1468.27579,1202.25387 1468.18942,1202.27385 1468.10305,1202.27385 C1467.85721,1202.27385 1467.61803,1202.12731 1467.51172,1201.88751 L1463.47875,1192.66197 C1457.18679,1190.657 1450.93469,1188.52547 1444.7756,1186.25406 C1439.14805,1184.17581 1433.19494,1181.87109 1427.68698,1178.50061 C1408.36593,1166.67727 1399.98771,1145.41524 1392.71242,1124 C1392.69914,1128.54949 1392.74564,1133.06567 1392.83202,1137.56853 C1392.83202,1137.58186 1392.84531,1137.60184 1392.84531,1137.61516 C1392.87188,1137.75504 1392.85859,1137.88826 1392.83866,1138.02148 C1393.62267,1177.67464 1398.14065,1215.69584 1406.83114,1256.04841 C1406.98395,1256.74781 1406.5388,1257.4339 1405.84781,1257.58044 C1405.7548,1257.60043 1405.66178,1257.60709 1405.5754,1257.60709 C1404.98408,1257.60709 1404.44591,1257.1941 1404.31967,1256.58795 C1403.56224,1253.07758 1402.85132,1249.5872 1402.15369,1246.11014 C1390.79892,1265.54704 1377.34462,1284.23792 1363,1300.44422 C1366.67419,1301.75644 1369.39827,1305.04034 1369.92315,1309.03696 C1372.89307,1331.83769 1378.2017,1354.40528 1385.68961,1376.1136 C1386.16134,1377.47912 1386.57992,1378.59151 1387.3307,1379.38417 C1388.03498,1380.13021 1389.09803,1380.62313 1390.12787,1381.10272 C1408.20647,1389.52227 1426.35151,1398.28154 1444.07797,1407.13406 C1453.17375,1411.67688 1462.38247,1416.35959 1471.44503,1421.04896 C1475.87665,1423.34036 1480.30826,1425.65174 1484.71994,1427.97644 C1485.6169,1428.44938 1486.52714,1428.99558 1487.49718,1429.58175 C1490.21462,1431.22037 1493.25762,1433.05215 1496.02821,1433 C1516.55184,1432.45932 1534.43111,1429.77492 1550.68259,1424.80579 C1556.70879,1411.93 1567.69813,1399.23407 1577.41845,1388.01022 C1580.5146,1384.4399 1583.43801,1381.06276 1586.16209,1377.74556 C1587.80983,1375.74059 1589.67018,1373.47583 1592.175,1371.91715 C1594.77949,1370.29852 1597.76269,1369.6524 1600.65288,1369.02626 C1603.76232,1368.34684 1606.69901,1367.71404 1609.0178,1365.94886 C1610.13401,1365.10291 1611.07083,1364.0105 1612.06744,1362.8648 C1612.76507,1362.05882 1613.48264,1361.21953 1614.28657,1360.45351 C1616.41269,1358.42189 1618.97067,1357.00975 1621.44227,1355.63758 C1622.32594,1355.15132 1623.20296,1354.66506 1624.06005,1354.1455 C1631.05629,1349.95571 1636.84994,1343.7343 1642.45092,1337.71939 C1648.94885,1330.73862 1655.67268,1323.53804 1664.3831,1319.29496 C1666.89457,1307.42499 1671.89758,1293.62332 1676.33584,1281.41364 C1678.0168,1276.8375 1679.59145,1272.50117 1681,1268.39131 Z M1471.086,1210.76814 L1444.02447,1192.2258 C1443.43603,1191.82445 1442.62693,1191.97161 1442.22572,1192.56025 C1441.82451,1193.1489 1441.97162,1193.95829 1442.56006,1194.35964 L1469.62159,1212.90199 C1485.29548,1223.63808 1501.50431,1234.74878 1515.83415,1247.66554 C1516.08156,1247.88628 1516.38916,1248 1516.70344,1248 C1517.05784,1248 1517.41224,1247.85284 1517.66634,1247.57189 C1518.14779,1247.04345 1518.10098,1246.22068 1517.57272,1245.73906 C1503.10915,1232.70858 1486.83344,1221.55776 1471.086,1210.76814 Z M1488.73473,1054.98223 C1491.06376,1054.88284 1493.18591,1054.9756 1494.86094,1054.82321 C1496.92303,1054.64431 1498.99847,1054.78345 1501.02719,1055.19425 C1501.28745,1055.24726 1501.54772,1055.32015 1501.80798,1055.3864 C1502.27512,1055.58518 1502.73559,1055.79721 1503.18271,1056.04236 C1504.63084,1056.85072 1505.97887,1057.83134 1507.40698,1058.67945 C1508.59485,1059.38179 1510.32327,1060.15701 1511.79143,1061.025 C1513.19952,1062.13814 1514.72773,1063.06576 1516.50954,1063.57595 C1517.55059,1063.86748 1518.57163,1064 1519.57932,1064 C1521.96173,1064 1524.24404,1063.26453 1526.46629,1062.25078 C1529.43597,1061.29666 1531.68491,1061.01174 1532.90615,1060.74009 C1535.22183,1060.22327 1537.55753,1059.77271 1539.8999,1059.41492 C1542.00871,1059.09025 1544.13753,1058.69933 1546.27303,1058.65957 C1547.20731,1058.63969 1548.14826,1058.69933 1549.05584,1058.94448 C1549.4429,1059.0505 1549.81662,1059.18964 1550.17031,1059.36854 C1551.41824,1060.34916 1552.61278,1061.50868 1553.69388,1062.86698 C1554.13432,1063.42355 1554.94848,1063.51631 1555.50905,1063.07901 C1556.06962,1062.6417 1556.16304,1061.83335 1555.7226,1061.27678 C1551.61177,1056.10862 1546.28637,1053.27276 1541.09445,1053.51129 C1536.95692,1053.69681 1533.23315,1055.75083 1529.62282,1057.73858 C1525.37185,1060.0775 1521.35445,1062.29716 1517.21692,1061.12438 C1514.48082,1060.34916 1512.33197,1058.21564 1510.06301,1055.96285 C1507.43368,1053.35227 1504.71759,1050.64893 1500.88037,1050.01285 C1497.84396,1049.50928 1494.98106,1050.4634 1492.21159,1051.38439 C1491.51755,1051.6163 1490.82352,1051.8482 1490.12948,1052.05361 C1488.72806,1052.47103 1483.96991,1053.62393 1481.6876,1051.01335 C1480.45968,1049.60867 1480.22611,1047.26312 1481.08699,1045.03684 C1481.94119,1042.83043 1483.61622,1040.95532 1485.23786,1039.13984 C1485.71167,1038.60977 1485.66496,1037.80142 1485.13108,1037.32436 C1484.59721,1036.85392 1483.78305,1036.9003 1483.30924,1037.43037 C1481.61419,1039.32536 1479.69891,1041.46551 1478.67788,1044.10922 C1477.47666,1047.21674 1477.89709,1050.58267 1479.73895,1052.68969 C1481.6609,1054.86296 1484.87082,1055.65806 1488.73473,1054.98223 Z M1559.93886,1066.60227 C1560.90797,1066.87192 1561.90292,1067 1562.89141,1067 C1566.10238,1067 1569.28751,1065.64502 1571.53584,1063.2047 C1574.5853,1059.89476 1575.75469,1054.66357 1574.50777,1049.89079 C1573.39653,1045.64383 1570.46336,1041.74066 1566.4448,1039.19248 C1565.85687,1038.81497 1565.08159,1039.01047 1564.72625,1039.62392 C1564.36445,1040.23737 1564.55181,1041.04632 1565.14619,1041.41708 C1568.62206,1043.6282 1571.15466,1046.96511 1572.09146,1050.57166 C1573.11226,1054.48156 1572.18191,1058.72853 1569.72684,1061.39131 C1567.43975,1063.87208 1563.7636,1064.95067 1560.57201,1064.07431 C1559.90009,1063.8923 1559.22172,1064.31025 1559.04082,1065.0046 C1558.86638,1065.70569 1559.26694,1066.42026 1559.93886,1066.60227 Z M1565.48753,1033.97989 C1565.56453,1033.9933 1565.64853,1034 1565.72553,1034 C1566.36953,1034 1566.94353,1033.55764 1567.06253,1032.92762 C1568.49753,1025.11266 1568.95253,1017.13684 1568.41353,1009.21464 C1568.36453,1008.49748 1567.72053,1007.96799 1566.97153,1008.00151 C1566.22253,1008.04842 1565.65553,1008.66504 1565.70453,1009.38219 C1566.22953,1017.09662 1565.78853,1024.86467 1564.38853,1032.47856 C1564.25553,1033.18901 1564.75253,1033.85925 1565.48753,1033.97989 Z M1467.23992,1094.54125 C1466.82689,1095.12099 1466.96012,1095.92729 1467.53969,1096.34044 C1472.40274,1099.8122 1478.36496,1099.13917 1484.13399,1098.49279 C1488.69726,1097.97969 1493.41375,1097.45327 1497.39744,1099.04588 C1498.94296,1099.6656 1500.36856,1100.59851 1501.87411,1101.58473 C1503.99919,1102.97076 1506.19755,1104.41011 1508.82226,1104.96319 C1512.87258,1105.8228 1516.86294,1104.39678 1520.72673,1103.02407 C1524.90361,1101.53808 1528.84734,1100.13205 1532.33141,1101.83128 C1533.63044,1102.46433 1534.72963,1103.49053 1535.89542,1104.5767 C1536.28846,1104.9432 1536.68817,1105.31637 1537.09453,1105.66954 C1540.83175,1108.94805 1545.59486,1111.1937 1550.50454,1111.98667 C1550.57115,1112 1550.64443,1112 1550.71105,1112 C1551.33059,1112 1551.88351,1111.54687 1551.98344,1110.91383 C1552.09668,1110.20748 1551.61704,1109.54778 1550.91756,1109.4345 C1546.48087,1108.71482 1542.17741,1106.68241 1538.79326,1103.72375 C1538.40689,1103.38391 1538.03383,1103.0374 1537.65411,1102.68423 C1536.40171,1101.51809 1535.10268,1100.31197 1533.45724,1099.51233 C1529.00722,1097.34665 1524.35735,1098.99923 1519.86071,1100.59851 C1516.17678,1101.91124 1512.69271,1103.14402 1509.3552,1102.44434 C1507.20347,1101.99121 1505.29822,1100.74511 1503.28639,1099.43237 C1501.74087,1098.41949 1500.14207,1097.37997 1498.35673,1096.66029 C1493.77348,1094.82113 1488.72391,1095.38754 1483.84088,1095.93396 C1478.31167,1096.55367 1473.08889,1097.14674 1469.03191,1094.24805 C1468.45901,1093.82158 1467.65294,1093.96152 1467.23992,1094.54125 Z M1573.29557,1107.82062 C1569.35301,1109.13662 1565.26867,1110.04662 1561.15733,1110.54362 C1560.44173,1110.62762 1559.92191,1111.29962 1560.00967,1112.04162 C1560.08393,1112.73462 1560.65101,1113.24562 1561.30585,1113.24562 C1561.35311,1113.24562 1561.40712,1113.24562 1561.45438,1113.23862 C1565.74124,1112.72762 1569.99435,1111.77562 1574.09219,1110.41062 C1574.78079,1110.17962 1575.15884,1109.41662 1574.93606,1108.70262 C1574.72003,1107.98162 1573.98417,1107.58962 1573.29557,1107.82062 Z M1507.67907,1084.06478 C1502.57531,1080.33461 1495.777,1082.33197 1489.80252,1084.77907 C1489.13943,1085.05023 1488.82464,1085.79759 1489.09925,1086.45236 C1489.37386,1087.10712 1490.13072,1087.41135 1490.7938,1087.1468 C1496.09849,1084.97748 1502.06627,1083.15208 1506.13856,1086.12167 C1506.76816,1086.58463 1507.34417,1087.16003 1507.95368,1087.7685 C1508.85789,1088.67459 1509.79558,1089.61374 1511.02799,1090.28174 C1514.65152,1092.22619 1518.70372,1090.84391 1522.28706,1089.62036 C1523.18457,1089.30951 1524.07539,1089.00528 1524.9528,1088.75395 C1531.34925,1086.92193 1538.77715,1088.46956 1543.87421,1092.70238 C1544.11534,1092.90079 1544.41004,1093 1544.70475,1093 C1545.07313,1093 1545.44151,1092.84788 1545.69603,1092.54365 C1546.15818,1092.00132 1546.0845,1091.19444 1545.53528,1090.73809 C1539.70146,1085.8968 1531.53678,1084.19706 1524.22274,1086.29363 C1523.30514,1086.55818 1522.36744,1086.87564 1521.42974,1087.19971 C1518.06072,1088.35051 1514.87925,1089.44179 1512.26709,1088.03305 C1511.36958,1087.55024 1510.60602,1086.78305 1509.79558,1085.97616 C1509.14589,1085.3214 1508.47611,1084.64679 1507.67907,1084.06478 Z M1510.84913,1077.96664 C1510.95413,1077.99333 1511.06613,1078 1511.17113,1078 C1511.78013,1078 1512.33313,1077.60636 1512.48713,1077.01256 L1515.14713,1066.59772 C1515.32213,1065.90384 1514.88113,1065.20329 1514.15313,1065.03649 C1513.43213,1064.8697 1512.69013,1065.29003 1512.51513,1065.9839 L1509.85513,1076.39874 C1509.67313,1077.09929 1510.12113,1077.79984 1510.84913,1077.96664 Z M1519.359,1080 C1519.975,1080 1520.528,1079.58976 1520.675,1078.98125 L1522.957,1069.62788 C1523.132,1068.91681 1522.684,1068.20574 1521.956,1068.0348 C1521.228,1067.87071 1520.5,1068.30146 1520.325,1069.01937 L1518.043,1078.37273 C1517.868,1079.08381 1518.316,1079.79488 1519.044,1079.96581 C1519.149,1079.98633 1519.254,1080 1519.359,1080 Z M1551.01281,1125.63828 C1548.56942,1125.03863 1546.7352,1126.79759 1545.25578,1128.21009 C1544.86082,1128.58987 1544.46586,1128.96298 1544.0709,1129.28945 C1541.72792,1131.20832 1538.23354,1131.38821 1535.14081,1131.41486 C1518.9475,1131.53479 1502.86798,1129.1562 1487.39095,1124.34571 C1485.5969,1123.7927 1483.70913,1123.17307 1482.03557,1122.23362 C1477.74458,1119.83504 1474.81921,1115.12449 1474.5916,1110.22739 C1474.55813,1109.51448 1473.94226,1108.96813 1473.23937,1109.00145 C1472.52309,1109.03476 1471.97416,1109.64107 1472.00094,1110.35398 C1472.26871,1116.11724 1475.70954,1121.66729 1480.76367,1124.48562 C1482.65144,1125.545 1484.69318,1126.21127 1486.61442,1126.81092 C1501.97765,1131.58143 1517.91659,1134 1534.0028,1134 C1534.38437,1134 1534.77263,1134 1535.1609,1133.99334 C1538.70214,1133.96669 1542.72536,1133.73349 1545.72437,1131.28161 C1546.17289,1130.91516 1546.6147,1130.48874 1547.06322,1130.06233 C1548.44223,1128.74311 1549.41958,1127.89028 1550.39694,1128.1368 C1551.09314,1128.31003 1551.79603,1127.88362 1551.96338,1127.19736 C1552.13074,1126.51109 1551.709,1125.81151 1551.01281,1125.63828 Z M1515.61568,1170.73722 C1507.24501,1171.49322 1498.63669,1170.33822 1490.70172,1167.40522 C1490.03497,1167.16022 1489.30881,1167.53122 1489.07115,1168.23822 C1488.8401,1168.94522 1489.18998,1169.71522 1489.85673,1169.96722 C1496.47801,1172.41722 1503.55479,1173.67022 1510.59196,1173.67022 C1512.34135,1173.67022 1514.09074,1173.59322 1515.82693,1173.43922 C1516.53329,1173.37622 1517.0548,1172.71822 1516.99539,1171.97622 C1516.94258,1171.22722 1516.31544,1170.65322 1515.61568,1170.73722 Z M1445.76996,1111.89287 C1445.93606,1111.96652 1446.11545,1112 1446.2882,1112 C1446.77987,1112 1447.2516,1111.71209 1447.46421,1111.22331 C1453.42402,1097.59771 1460.59971,1084.40734 1468.7853,1072.01374 C1469.17731,1071.41783 1469.01785,1070.61435 1468.42652,1070.21931 C1467.83519,1069.81757 1467.03789,1069.98496 1466.63924,1070.58087 C1458.37391,1083.09499 1451.13179,1096.41928 1445.10554,1110.17879 C1444.82649,1110.84166 1445.11883,1111.60496 1445.76996,1111.89287 Z M1607.19202,1001.31996 C1610.61201,1001.56496 1614.32912,1001.83096 1618.14525,1001.83096 C1624.91262,1001.83096 1631.99691,1000.99796 1638.28231,997.74296 C1638.91613,997.41396 1639.18022,996.60196 1638.86991,995.92996 C1638.55961,995.25796 1637.80034,994.97796 1637.15992,995.30696 C1627.93648,1000.08096 1617.00305,999.30396 1607.36368,998.61796 C1606.66383,998.59696 1606.04982,999.13596 1606.0036,999.87796 C1605.95078,1000.61996 1606.48557,1001.26396 1607.19202,1001.31996 Z M1641.00971,1139.44659 C1641.45242,1142.99519 1644.08855,1144.66277 1646.41612,1146.13024 L1647.0131,1146.51045 C1649.96449,1148.40482 1651.59447,1151.90673 1651.37311,1155.8889 C1651.2792,1157.57649 1650.80967,1159.80438 1649.0992,1160.83827 C1648.11317,1161.43193 1646.832,1161.57201 1645.73864,1161.20514 C1645.06116,1160.97168 1644.32332,1161.33188 1644.08855,1162.01225 C1643.86048,1162.68595 1644.2227,1163.41968 1644.90018,1163.65314 C1645.57766,1163.8866 1646.29538,1164 1647.0131,1164 C1648.21378,1164 1649.41446,1163.67983 1650.45416,1163.05282 C1652.57379,1161.77212 1653.79459,1159.34412 1653.9757,1156.03565 C1654.25072,1151.11296 1652.17804,1146.74391 1648.42843,1144.3426 L1647.81803,1143.95572 C1645.38313,1142.41488 1643.8739,1141.36097 1643.59888,1139.13308 C1643.51168,1138.42603 1642.86104,1137.91242 1642.15002,1138.01247 C1641.4323,1138.09252 1640.92251,1138.73954 1641.00971,1139.44659 Z" id="Shape"></path>
        </g>
    </g>
</svg>